<?xml version="1.0" encoding="UTF-8" standalone="no"?>
<svg
   xmlns:dc="http://purl.org/dc/elements/1.1/"
   xmlns:cc="http://creativecommons.org/ns#"
   xmlns:rdf="http://www.w3.org/1999/02/22-rdf-syntax-ns#"
   xmlns:svg="http://www.w3.org/2000/svg"
   xmlns="http://www.w3.org/2000/svg"
   width="120"
   height="120"
   viewBox="0 0 120 120"
   fill="none"
   version="1.1"
   id="svg42">
  <metadata
     id="metadata48">
    <rdf:RDF>
      <cc:Work
         rdf:about="">
        <dc:format>image/svg+xml</dc:format>
        <dc:type
           rdf:resource="http://purl.org/dc/dcmitype/StillImage" />
        <dc:title></dc:title>
      </cc:Work>
    </rdf:RDF>
  </metadata>
  <defs
     id="defs46" />
  <path
     d="m 107.35529,99.118499 c -21.43645,-21.470469 -21.43645,-56.40501 0,-77.875888 0.30717,-0.307576 0.61639,-0.609414 0.92888,-0.907564 L 89.21345,1.2332193 C 88.90259,1.5340124 88.59153,1.8331458 88.28457,2.139533 56.333784,34.14358 56.333784,86.217324 88.28519,118.22098 c 0.30757,0.30676 0.61904,0.60552 0.92826,0.90675 l 19.07072,-19.10249 c -0.31249,-0.297327 -0.62171,-0.598756 -0.92888,-0.906741 z"
     fill="#1d4e9e"
     id="path30"
     style="stroke-width:2.04914" />
  <path
     d="M 29.233101,2.1402707 C 28.92491,1.8327769 28.614671,1.5336436 28.303611,1.23283 L 9.23291,20.334842 c 0.312576,0.297945 0.621791,0.600398 0.928793,0.907359 21.435899,21.470878 21.435899,56.406034 0,77.875888 -0.307002,0.307985 -0.616217,0.609414 -0.928793,0.906951 l 19.070701,19.10351 c 0.310445,-0.30246 0.622939,-0.60102 0.92826,-0.90798 31.95202,-32.003041 31.95202,-84.0774 0.0012,-116.0802993 z"
     fill="#05a1e6"
     id="path32"
     style="stroke-width:2.04914" />
</svg>
