<svg width="3144" height="1000" viewBox="0 0 3144 1000" fill="none" xmlns="http://www.w3.org/2000/svg">
<path d="M1564.69 492.559L1739.25 233.303H1888.98L1709.15 492.559L1908.54 760.857H1746.77L1564.69 492.559ZM1431.51 233.303H1560.93V760.861H1431.51V233.303Z" fill="#231F20"/>
<path d="M2183.34 428.778H2126.73L2056.94 532.025H2149.48C2190.86 532.025 2216.45 558.409 2216.45 595.337C2216.45 631.511 2190.86 658.639 2149.48 658.639H2056.94V532.025V336.835H2296.96V233.583H1927.52V761.137H2183.34C2284.92 761.137 2347.37 691.047 2347.37 596.086C2347.37 499.618 2276.64 428.778 2183.34 428.778Z" fill="#231F20"/>
<path d="M1325.38 626.814C1290.51 642.878 1249.91 651.575 1212.78 651.575C1121.74 651.575 1064.55 579.977 1064.55 497.084C1064.55 414.172 1121.74 343.333 1212.78 343.333C1249.99 343.333 1290.68 352.063 1325.58 368.194L1391.6 270.532C1340.84 239.643 1278.33 222.003 1212.78 222.003C1037.46 222.003 933.637 344.087 933.637 497.084C933.637 650.826 1037.46 772.16 1212.78 772.16C1278.25 772.16 1340.67 755.176 1391.4 724.484L1325.38 626.814Z" fill="#231F20"/>
<path d="M2437.01 367.17C2415.81 348.625 2431.04 254.035 2455.33 241.799C2468.29 235.27 2503.37 302.702 2697.52 350.985C2851.92 389.391 2915.57 374.029 2920.78 386.045C2925.93 398.06 2914.65 482.391 2884.4 488.646C2781.17 509.934 2543.05 460.17 2437.01 367.17Z" fill="#DBDAD8"/>
<path d="M2638.01 553.603H2521.3L2638.01 379.516V553.603ZM2845.18 553.603H2768.18V225.77H2644.64L2424.4 553.825V643.289H2638.01V760.861H2768.18V643.289H2845.18V553.603V553.603Z" fill="#231F20"/>
<path d="M2462.16 236.036C2462.16 236.036 2544.99 34.7032 2785.58 62.4543C2965.12 83.1305 3094.95 264.006 3097.31 378.356C3097.86 405.065 3071.04 396.345 3071.04 396.345C3071.04 396.345 3030.99 317.479 2981.52 317.479C2938.07 317.479 2909.55 382.195 2909.55 382.195C2909.55 382.195 2824.85 376.876 2633.47 326.583C2442.14 276.291 2462.16 236.036 2462.16 236.036Z" fill="#CD343D"/>
<path d="M2914.81 357.406C2936.26 375.943 2920.85 470.494 2896.27 482.725C2883.16 489.251 2847.67 421.848 2651.24 373.585C2495.02 335.194 2430.62 350.55 2425.35 338.54C2420.14 326.529 2431.55 242.233 2462.16 235.981C2566.6 214.702 2807.52 264.445 2914.81 357.406Z" fill="#F3EFE9"/>
<path d="M3088.91 472.213C3118.87 472.213 3143.15 447.928 3143.14 417.971C3143.14 388.014 3118.85 363.729 3088.89 363.729C3058.93 363.729 3034.65 388.014 3034.65 417.971C3034.66 447.928 3058.95 472.213 3088.91 472.213Z" fill="#F3EFE9"/>
<path d="M828.796 830.51C647.732 649.159 647.732 354.082 828.796 172.726C831.39 170.129 834.001 167.579 836.642 165.062L675.559 3.71638C672.933 6.25714 670.307 8.7838 667.714 11.3717C397.839 281.696 397.839 721.54 667.719 991.86C670.317 994.452 672.947 996.974 675.559 999.52L836.642 838.17C834.001 835.657 831.39 833.112 828.796 830.51Z" fill="#1D4E9E"/>
<path d="M168.932 11.3833C166.33 8.78599 163.708 6.25934 161.082 3.71858L0 165.064C2.64016 167.581 5.25207 170.136 7.84517 172.729C188.905 354.084 188.905 649.166 7.84517 830.512C5.25207 833.114 2.64016 835.659 0 838.172L161.082 999.531C163.704 996.976 166.344 994.454 168.923 991.862C438.807 721.547 438.807 281.698 168.932 11.3833Z" fill="#05A1E6"/>
<mask id="mask0_1091_8610" style="mask-type:alpha" maskUnits="userSpaceOnUse" x="0" y="3" width="372" height="997">
<path d="M168.932 11.3833C166.33 8.78599 163.708 6.25934 161.082 3.71858L0 165.064C2.64016 167.581 5.25207 170.136 7.84517 172.729C188.905 354.084 188.905 649.166 7.84517 830.512C5.25207 833.114 2.64016 835.659 0 838.172L161.082 999.531C163.704 996.976 166.344 994.454 168.923 991.862C438.807 721.547 438.807 281.698 168.932 11.3833Z" fill="#05A1E6"/>
</mask>
<g mask="url(#mask0_1091_8610)">
<path d="M189.407 411.19C188.708 411.069 188.004 411.108 187.316 411.325L162.002 419.156L151.814 410.667L190.044 398.838C191.184 398.492 192.109 397.714 192.664 396.664C193.218 395.613 193.324 394.404 192.975 393.266C192.476 391.662 191.134 390.491 189.477 390.203C188.789 390.083 188.061 390.13 187.386 390.337L143.656 403.875L130.029 392.518L150.47 385.056C151.958 384.515 153.057 383.201 153.329 381.638C153.601 380.075 153.007 378.478 151.791 377.456L134.5 363.053L151.865 356.712L188.462 384.212C189.037 384.648 189.675 384.921 190.385 385.044C192.043 385.332 193.701 384.682 194.712 383.341C195.424 382.387 195.731 381.224 195.565 380.037C195.398 378.861 194.778 377.816 193.833 377.107L161.837 353.071L174.291 348.518L195.478 364.432C196.053 364.868 196.691 365.141 197.39 365.262C199.047 365.55 200.705 364.9 201.717 363.559C202.428 362.605 202.735 361.442 202.57 360.255C202.402 359.079 201.783 358.033 200.837 357.325L184.264 344.877L202.658 338.159C203.775 337.751 204.672 336.934 205.174 335.851C205.675 334.769 205.723 333.561 205.312 332.447C204.769 330.962 203.45 329.864 201.882 329.592C201.115 329.459 200.325 329.53 199.582 329.794L181.187 336.512L185.75 316.34C186.01 315.181 185.811 313.988 185.172 312.985C184.533 311.982 183.541 311.277 182.378 311.017C179.968 310.447 177.587 311.979 177.043 314.375L171.213 340.164L158.759 344.718L167.571 305.779C167.831 304.62 167.632 303.427 166.993 302.424C166.354 301.421 165.362 300.716 164.21 300.458C161.834 299.894 159.41 301.407 158.875 303.816L148.798 348.361L131.433 354.701L135.279 332.575C135.55 331.012 134.957 329.415 133.74 328.392C132.543 327.397 130.806 327.095 129.343 327.628L108.902 335.09L111.931 317.664L154.075 299.82C155.179 299.351 156.025 298.491 156.473 297.387C156.92 296.283 156.909 295.077 156.438 293.976C155.845 292.575 154.588 291.592 153.088 291.332C152.242 291.185 151.376 291.289 150.586 291.626L113.736 307.217L116 294.186L140.401 283.856C141.505 283.388 142.351 282.527 142.799 281.424C143.246 280.32 143.235 279.113 142.764 278.012C142.172 276.612 140.914 275.629 139.414 275.368C138.568 275.221 137.702 275.326 136.912 275.663L117.827 283.743L121.175 264.484C121.595 262.067 119.964 259.756 117.539 259.335C115.115 258.913 112.8 260.538 112.38 262.955L109.032 282.215L93.7936 268.168C93.1634 267.584 92.3833 267.194 91.5376 267.047C90.038 266.786 88.5201 267.298 87.4913 268.405C86.6786 269.271 86.2592 270.415 86.3079 271.605C86.3567 272.795 86.8631 273.89 87.744 274.704L107.217 292.659L104.952 305.69L75.535 278.581C74.9048 277.997 74.1247 277.607 73.279 277.46C71.7793 277.199 70.2616 277.711 69.2328 278.818C68.4201 279.684 68.0006 280.828 68.0493 282.018C68.0981 283.208 68.6046 284.303 69.4855 285.117L103.125 316.133L99.9651 334.313L83.2413 320.391C82.0437 319.395 80.3072 319.093 78.8438 319.627C77.3559 320.167 76.2562 321.482 75.9846 323.045L72.2657 344.44L58.0588 332.612L63.6034 287.28C63.8995 284.841 62.1511 282.602 59.7147 282.318C58.5323 282.17 57.3599 282.499 56.4201 283.228C55.4804 283.956 54.8903 285.012 54.7434 286.191L49.9 325.82L39.7127 317.331L42.9268 291.087C43.2205 288.729 41.6221 286.563 39.2881 286.157C39.2091 286.144 39.119 286.128 39.0381 286.125C37.8556 285.978 36.6833 286.307 35.7435 287.035C34.8037 287.764 34.2137 288.82 34.0668 289.999L31.5558 310.527L16.5068 297.997C15.908 297.499 15.1764 297.163 14.4097 297.03C12.8424 296.757 11.23 297.346 10.2175 298.56C8.63621 300.439 8.90206 303.254 10.7883 304.833L25.8372 317.363L6.03547 323.489C3.69032 324.216 2.37217 326.721 3.10393 329.06C3.6034 330.664 4.9448 331.836 6.60232 332.124C7.30141 332.245 8.00526 332.205 8.68209 331.987L33.9961 324.156L44.1834 332.644L5.95412 344.474C4.81364 344.82 3.88861 345.598 3.33433 346.648C2.78004 347.698 2.67436 348.908 3.02453 350.034C3.52399 351.638 4.86533 352.81 6.52284 353.098C7.22193 353.219 7.92585 353.179 8.60268 352.961L52.3329 339.424L65.9596 350.78L45.5189 358.243C44.031 358.783 42.9313 360.098 42.6596 361.661C42.388 363.223 42.9816 364.821 44.1979 365.843L61.4886 380.246L44.1237 386.586L7.52635 359.087C6.95159 358.651 6.31372 358.378 5.60336 358.254C3.94584 357.966 2.28786 358.616 1.27639 359.958C0.564691 360.911 0.258029 362.074 0.425382 363.25C0.592736 364.426 1.21245 365.472 2.15796 366.18L34.1533 390.216L21.6992 394.77L0.512479 378.856C-0.0622841 378.42 -0.700219 378.147 -1.41058 378.023C-3.0681 377.735 -4.72605 378.385 -5.73752 379.727C-7.21579 381.682 -6.81999 384.484 -4.85786 385.961L11.7155 398.409L-6.67903 405.126C-8.9854 405.965 -10.1741 408.526 -9.33303 410.839C-8.78951 412.323 -7.47024 413.421 -5.90293 413.693C-5.13619 413.827 -4.3456 413.756 -3.60262 413.491L14.792 406.773L10.2288 426.945C9.96917 428.104 10.1684 429.297 10.8072 430.3C11.446 431.303 12.4386 432.008 13.5902 432.267C13.6692 432.28 13.7348 432.303 13.8137 432.317C16.1591 432.725 18.4057 431.227 18.923 428.919L24.7531 403.13L37.2072 398.577L28.3947 437.515C28.1351 438.675 28.3343 439.868 28.9731 440.871C29.6119 441.874 30.6045 442.579 31.7561 442.837C31.8351 442.851 31.9008 442.874 31.9797 442.887C34.325 443.295 36.5717 441.798 37.089 439.49L47.1663 394.945L64.5312 388.605L60.6853 410.731C60.4137 412.294 61.0073 413.891 62.2235 414.913C62.8224 415.411 63.5539 415.747 64.3207 415.88C65.0874 416.013 65.8894 415.944 66.6211 415.678L87.0617 408.215L84.0308 425.653L41.8869 443.498C40.7945 443.968 39.9367 444.826 39.4893 445.93C39.0419 447.034 39.0529 448.24 39.5237 449.341C40.1166 450.742 41.3745 451.725 42.8742 451.986C43.7199 452.133 44.586 452.028 45.3745 451.702L82.2133 436.109L79.9484 449.14L55.5589 459.472C54.4665 459.942 53.6088 460.801 53.1614 461.905C52.714 463.008 52.725 464.215 53.1957 465.316C53.7887 466.716 55.0466 467.699 56.5462 467.96C57.3919 468.107 58.258 468.003 59.0485 467.665L78.133 459.585L74.7912 478.811C74.3711 481.228 76.0024 483.538 78.4266 483.96C80.8509 484.381 83.1661 482.757 83.5862 480.339L86.9338 461.08L102.172 475.126C102.803 475.711 103.594 476.103 104.428 476.248C105.928 476.509 107.446 475.996 108.475 474.89C109.287 474.023 109.707 472.88 109.658 471.69C109.609 470.5 109.103 469.404 108.222 468.591L88.738 450.633L91.003 437.602L120.42 464.711C121.05 465.296 121.841 465.688 122.676 465.833C124.175 466.094 125.693 465.581 126.722 464.475C127.535 463.608 127.954 462.465 127.905 461.275C127.857 460.085 127.35 458.989 126.469 458.176L92.8861 427.169L96.0441 409.001L112.768 422.923C113.965 423.918 115.702 424.22 117.165 423.687C118.653 423.146 119.753 421.832 120.025 420.269L123.743 398.873L137.95 410.702L132.406 456.034C132.112 458.392 133.724 460.549 136.069 460.957C136.148 460.97 136.216 460.982 136.296 460.984C137.479 461.132 138.651 460.803 139.591 460.074C140.531 459.346 141.121 458.29 141.268 457.111L146.111 417.483L156.298 425.972L153.084 452.215C152.791 454.574 154.402 456.73 156.747 457.138C156.826 457.151 156.894 457.163 156.975 457.166C158.157 457.313 159.33 456.984 160.27 456.256C161.209 455.527 161.799 454.472 161.946 453.292L164.457 432.764L179.506 445.295C180.105 445.793 180.837 446.128 181.603 446.261C183.171 446.534 184.783 445.945 185.796 444.732C186.558 443.822 186.921 442.668 186.814 441.48C186.707 440.292 186.138 439.22 185.225 438.459L170.176 425.928L189.978 419.803C191.12 419.445 192.043 418.679 192.597 417.629C193.152 416.578 193.257 415.369 192.907 414.242C192.415 412.663 191.076 411.48 189.407 411.19ZM74.2659 385.061L92.2889 378.476L88.8828 398.073L70.8597 404.658L74.2659 385.061ZM121.745 358.241L103.722 364.826L107.128 345.23L125.151 338.645L121.745 358.241ZM106.801 373.18L124.824 366.595L140.136 379.345L122.113 385.93L106.801 373.18ZM94.9271 363.298L80.1833 351.017L83.4624 332.151L98.2063 344.432L94.9271 363.298ZM89.2106 370.123L71.1875 376.708L55.8747 363.958L73.8977 357.372L89.2106 370.123ZM101.084 380.005L115.828 392.285L112.549 411.151L97.8048 398.871L101.084 380.005Z" fill="white"/>
<path d="M163.984 148.813C177.285 145.584 185.45 132.184 182.221 118.883C178.992 105.582 165.592 97.4168 152.291 100.646C138.99 103.875 130.825 117.275 134.054 130.576C137.282 143.877 150.683 152.042 163.984 148.813Z" fill="white"/>
<path d="M305.349 146.17L292.642 142.438L288.622 156.122L268.086 150.095L277.844 116.838L265.137 113.105L255.379 146.362L234.843 140.334L241.732 116.864L229.026 113.131L222.136 136.602L205.046 131.591C205.914 125.734 205.696 119.651 204.218 113.56C202.739 107.468 200.123 101.95 196.687 97.1557L209.577 84.8666L226.461 102.566L236.042 93.4229L219.158 75.7234L234.645 60.9512L258.565 86.0323L268.146 76.8891L244.226 51.808L259.713 37.0357L269.56 47.3535L279.141 38.2103L269.293 27.8925L281.089 16.6384L271.945 7.05874L260.15 18.3128L250.303 7.99503L240.722 17.1382L250.569 27.456L235.082 42.2283L211.162 17.1472L201.581 26.2904L225.501 51.3715L210.014 66.1438L193.131 48.4443L183.55 57.5875L200.434 75.287L187.531 87.5965C178.125 80.1782 166.012 76.3712 153.531 77.6005L149.328 60.284L173.101 54.5129L169.975 41.6369L146.202 47.408L141.153 26.6084L174.831 18.4326L171.706 5.55663L138.027 13.7324L132.978 -7.06723L146.845 -10.4337L143.719 -23.3097L129.852 -19.9432L126.005 -35.7905L113.128 -32.6645L116.975 -16.8172L103.107 -13.4507L106.233 -0.574697L120.1 -3.94119L125.15 16.8584L91.4709 25.0342L94.5966 37.9102L128.275 29.7344L133.325 50.5341L109.551 56.3052L112.677 69.1812L136.45 63.41L140.65 80.71C129.011 85.336 119.976 94.2769 115.018 105.182L97.9075 100.159L104.797 76.6879L92.0903 72.9551L85.2009 96.4258L64.6647 90.3984L74.4231 57.1415L61.7165 53.4087L51.9582 86.6656L31.422 80.6382L35.4425 66.9539L22.7029 63.2292L18.6824 76.9135L3.03971 72.3203L-0.693904 85.0259L14.9488 89.6192L10.9283 103.303L23.6348 107.036L27.6553 93.3519L48.1915 99.3793L38.4332 132.636L51.1397 136.369L60.8981 103.112L81.4343 109.139L74.5448 132.61L87.2514 136.343L94.1408 112.872L111.231 117.883C110.363 123.74 110.581 129.823 112.059 135.914C113.538 142.006 116.154 147.524 119.59 152.318L106.7 164.607L89.8161 146.908L80.2353 156.051L97.1191 173.75L81.6322 188.523L57.7118 163.442L48.131 172.585L72.0514 197.666L56.5645 212.438L46.7173 202.12L37.1364 211.264L46.9836 221.581L35.188 232.835L44.3316 242.415L56.1272 231.161L65.9744 241.479L75.5552 232.336L65.708 222.018L81.1949 207.246L105.115 232.327L114.696 223.183L90.7758 198.102L106.263 183.33L123.146 201.03L132.727 191.886L115.843 174.187L128.746 161.877C138.152 169.296 150.265 173.103 162.746 171.873L166.945 189.173L143.172 194.944L146.298 207.82L170.071 202.049L175.12 222.849L141.442 231.025L144.567 243.901L178.246 235.725L183.296 256.525L169.428 259.891L172.554 272.767L186.421 269.401L190.268 285.248L203.146 282.122L199.298 266.274L213.166 262.908L210.04 250.032L196.173 253.399L191.123 232.599L224.802 224.423L221.676 211.547L187.998 219.723L182.948 198.923L206.722 193.152L203.596 180.276L179.823 186.047L175.623 168.747C187.262 164.121 196.297 155.18 201.255 144.275L218.366 149.299L211.476 172.769L224.183 176.502L231.072 153.032L251.608 159.059L241.85 192.316L254.557 196.049L264.315 162.792L284.851 168.819L280.831 182.503L293.537 186.236L297.558 172.552L313.2 177.145L316.934 164.439L301.291 159.846L305.349 146.17ZM191.324 116.69C195.764 134.98 184.488 153.485 166.195 157.926C147.903 162.366 129.397 151.091 124.957 132.801C120.517 114.51 131.794 96.0054 150.086 91.5648C168.378 87.1242 186.884 98.3992 191.324 116.69Z" fill="white"/>
<path d="M420.322 359.82L403.475 364.527L409.03 348.61L401.805 346.089L396.14 362.298L385.048 358.423L392.974 335.734L385.749 333.212L377.823 355.901L366.971 352.11L371.494 339.15L364.269 336.629L359.746 349.589L347.96 345.48L351.394 335.663L344.603 327.787L354.063 319.646L363.02 330.048L368.819 325.055L359.862 314.652L368.57 307.149L384.258 325.357L390.057 320.363L374.37 302.156L383.27 294.486L394.479 307.493L400.279 302.5L389.279 289.725L406.679 287.932L412.822 263.989L388.225 266.523L383.881 283.471L372.881 270.697L367.082 275.69L378.291 288.696L369.39 296.366L353.703 278.158L347.903 283.152L363.591 301.359L354.882 308.862L345.925 298.46L340.126 303.453L349.083 313.855L339.623 321.997L332.967 314.272L332.832 314.121L322.619 316.059L320.292 303.797L333.784 301.236L332.358 293.722L318.877 296.28L316.734 284.986L340.347 280.504L338.921 272.99L315.308 277.472L313.117 265.927L329.978 262.727L328.552 255.212L311.987 258.356L319.135 242.385L301.463 225.097L291.355 247.657L303.857 259.899L287.292 263.043L288.718 270.557L305.58 267.357L307.771 278.902L284.157 283.384L285.583 290.898L309.197 286.416L311.34 297.711L297.849 300.271L299.275 307.786L312.766 305.225L315.094 317.487L304.881 319.425L301.448 329.242L289.663 325.133L294.186 312.172L286.96 309.651L282.437 322.612L271.585 318.82L279.511 296.132L272.286 293.61L264.36 316.299L253.268 312.424L258.932 296.216L251.707 293.694L246.152 309.611L236.044 295.629L235.9 295.432L212.086 302.087L226.432 321.929L226.576 322.126L243.423 317.418L237.868 333.335L245.094 335.856L250.758 319.647L261.85 323.523L253.924 346.212L261.15 348.733L269.076 326.044L279.927 329.835L275.404 342.795L282.63 345.317L287.153 332.356L298.938 336.465L295.505 346.282L302.296 354.158L292.836 362.3L283.879 351.897L278.079 356.891L287.036 367.293L278.328 374.796L262.641 356.589L256.841 361.582L272.529 379.789L263.628 387.459L252.419 374.452L246.62 379.446L257.62 392.22L240.219 394.013L234.077 417.956L258.673 415.423L263.017 398.474L274.017 411.248L279.816 406.255L268.608 393.249L277.508 385.579L293.196 403.787L298.995 398.794L283.308 380.586L292.016 373.083L300.973 383.485L306.773 378.492L297.815 368.09L307.275 359.948L313.932 367.673L314.067 367.825L324.279 365.886L326.606 378.148L313.115 380.709L314.541 388.223L328.032 385.663L330.176 396.957L306.563 401.439L307.989 408.953L331.602 404.471L333.793 416.016L316.931 419.216L318.358 426.731L334.923 423.587L327.775 439.558L345.447 456.846L355.555 434.286L343.052 422.044L359.618 418.9L358.192 411.386L341.33 414.586L339.139 403.041L362.753 398.559L361.326 391.045L337.713 395.527L335.57 384.232L349.061 381.672L347.635 374.157L334.143 376.718L331.816 364.456L342.029 362.518L345.462 352.701L357.247 356.81L352.724 369.771L359.949 372.292L364.473 359.331L375.324 363.123L367.399 385.811L374.624 388.333L382.55 365.644L393.642 369.519L387.978 385.728L395.203 388.249L400.758 372.332L410.866 386.314L411.009 386.511L434.824 379.856L420.477 360.014L420.322 359.82ZM414.069 377.709L409.14 370.883L417.249 368.613L422.178 375.439L414.069 377.709ZM342.741 337.305L336.276 355.824L317.001 359.483L304.19 344.622L310.654 326.103L329.93 322.445L342.741 337.305ZM402.683 272.72L400.598 280.877L392.221 281.735L394.306 273.578L402.683 272.72ZM303.968 238.233L309.981 244.122L306.544 251.805L300.531 245.916L303.968 238.233ZM232.862 304.218L237.79 311.044L229.681 313.315L224.752 306.489L232.862 304.218ZM244.247 409.208L246.332 401.051L254.709 400.192L252.624 408.349L244.247 409.208ZM342.962 443.694L336.949 437.805L340.387 430.123L346.399 436.012L342.962 443.694Z" fill="white"/>
<path d="M235.091 1001.82L222.666 1002.06L229.32 992.102L224.799 989.082L218.018 999.222L211.079 994.582L220.569 980.388L216.048 977.368L206.559 991.562L199.77 987.024L205.188 978.915L200.667 975.895L195.249 984.004L187.875 979.08L191.984 972.939L188.715 966.314L196.67 962.398L200.979 971.147L205.856 968.745L201.547 959.996L208.872 956.386L216.421 971.7L221.298 969.298L213.749 953.984L221.236 950.293L226.63 961.233L231.508 958.831L226.216 948.088L238.502 949.952L246.988 934.578L229.621 931.942L223.617 942.826L218.325 932.082L213.448 934.484L218.842 945.424L211.355 949.115L203.806 933.801L198.929 936.203L206.478 951.517L199.153 955.128L194.844 946.379L189.967 948.781L194.276 957.53L186.321 961.445L183.118 954.948L183.052 954.82L175.683 954.335L176.265 945.487L186 946.128L186.356 940.706L176.63 940.066L177.166 931.917L194.204 933.037L194.56 927.615L177.522 926.495L178.07 918.165L190.236 918.965L190.593 913.543L178.64 912.757L186.399 903.045L177.322 888.009L166.354 901.726L172.775 912.371L160.822 911.585L160.465 917.007L172.632 917.807L172.084 926.137L155.046 925.016L154.689 930.438L171.727 931.559L171.191 939.708L161.456 939.068L161.1 944.49L170.835 945.13L170.253 953.978L162.884 953.493L158.776 959.634L151.402 954.71L156.819 946.601L152.299 943.581L146.881 951.69L140.092 947.151L149.581 932.957L145.061 929.937L135.571 944.131L128.633 939.492L135.413 929.352L130.892 926.332L124.239 936.29L119.776 924.875L119.712 924.714L102.149 925.052L108.484 941.252L108.548 941.413L120.973 941.174L114.319 951.133L118.84 954.153L125.621 944.013L132.56 948.652L123.07 962.846L127.591 965.866L137.08 951.672L143.869 956.211L138.451 964.32L142.972 967.34L148.39 959.231L155.764 964.155L151.655 970.295L154.924 976.921L146.969 980.837L142.66 972.088L137.783 974.49L142.092 983.239L134.767 986.849L127.218 971.535L122.341 973.937L129.89 989.251L122.403 992.942L117.009 982.002L112.131 984.404L117.423 995.147L105.137 993.283L96.6507 1008.66L114.018 1011.29L120.022 1000.41L125.314 1011.15L130.191 1008.75L124.797 997.81L132.284 994.12L139.833 1009.43L144.71 1007.03L137.161 991.718L144.486 988.107L148.795 996.856L153.672 994.454L149.363 985.705L157.318 981.79L160.521 988.287L160.587 988.415L167.956 988.9L167.374 997.748L157.639 997.107L157.283 1002.53L167.018 1003.17L166.482 1011.32L149.444 1010.2L149.087 1015.62L166.125 1016.74L165.577 1025.07L153.411 1024.27L153.054 1029.69L165.007 1030.48L157.248 1040.19L166.325 1055.23L177.293 1041.51L170.873 1030.86L182.826 1031.65L183.182 1026.23L171.016 1025.43L171.563 1017.1L188.601 1018.22L188.958 1012.8L171.92 1011.68L172.456 1003.53L182.191 1004.17L182.547 998.745L172.813 998.105L173.394 989.258L180.763 989.742L184.872 983.602L192.246 988.525L186.828 996.634L191.349 999.654L196.766 991.545L203.555 996.084L194.066 1010.28L198.587 1013.3L208.076 999.104L215.015 1003.74L208.234 1013.88L212.755 1016.9L219.408 1006.94L223.872 1018.36L223.935 1018.52L241.498 1018.18L235.163 1001.98L235.091 1001.82ZM227.606 1013.01L225.431 1007.44L231.413 1007.32L233.587 1012.89L227.606 1013.01ZM185.74 972.529L177.998 984.115L164.09 983.2L157.924 970.699L165.666 959.113L179.574 960.028L185.74 972.529ZM238.462 938.778L235.576 944.017L229.662 943.116L232.547 937.877L238.462 938.778ZM176.707 897.49L179.794 902.61L176.063 907.282L172.976 902.162L176.707 897.49ZM116.058 930.216L118.233 935.788L112.252 935.906L110.077 930.334L116.058 930.216ZM105.203 1004.45L108.088 999.211L114.003 1000.11L111.117 1005.35L105.203 1004.45ZM166.957 1045.74L163.87 1040.62L167.601 1035.95L170.689 1041.07L166.957 1045.74Z" fill="white"/>
<path d="M359.857 608.38L358.032 601.599L338.213 606.886L328.121 601.079L351.564 594.818L349.739 588.036L319.489 596.117L311.053 591.258L329.281 586.386L327.456 579.605L302.421 586.282L293.985 581.424L306.998 577.942L305.172 571.161L285.353 576.448L275.261 570.641L297.662 564.666H319.15L340.494 585.932L345.475 580.969L329.112 564.666H335.735L350.639 579.514L355.619 574.552L345.697 564.666H360.835V557.65H345.697L355.619 547.764L350.639 542.802L335.735 557.65H329.112L345.475 541.334L340.494 536.371L319.15 557.637H298.523L275.366 551.454L285.458 545.647L305.277 550.934L307.102 544.153L294.076 540.671L302.512 535.813L327.547 542.49L329.372 535.709L311.144 530.837L319.58 525.978L349.83 534.059L351.656 527.278L328.212 521.016L338.304 515.209L358.123 520.496L359.948 513.715L346.923 510.233L362.178 501.464L358.657 495.385L343.402 504.154L346.896 491.176L340.09 489.357L334.783 509.103L324.691 514.91L330.976 491.552L324.17 489.734L316.06 519.873L307.624 524.731L312.513 506.57L305.707 504.751L299.005 529.694L290.569 534.552L294.063 521.587L287.257 519.769L281.95 539.515L271.858 545.322L277.856 523.003L288.483 504.66L317.65 496.879L315.825 490.097L293.464 496.073L296.775 490.357L317.129 484.927L315.304 478.146L301.743 481.77L309.319 468.701L303.217 465.194L295.641 478.263L292.068 464.882L285.262 466.701L290.712 486.98L287.401 492.696L281.403 470.416L274.596 472.235L282.407 501.296L272.21 518.885L255.26 535.774V524.173L269.772 509.714L264.791 504.751L255.26 514.248V504.543L273.579 486.291L268.599 481.328L255.247 494.631V484.927L277.387 462.868L272.406 457.906L255.247 475.002V463.401L269.759 448.942L264.778 443.979L255.247 453.476V435.912H248.206V453.463L238.675 443.967L233.694 448.929L248.206 463.388V474.989L231.047 457.893L226.066 462.855L248.206 484.914V494.618L234.854 481.316L229.874 486.278L248.193 504.53V514.235L238.662 504.738L233.681 509.701L248.193 524.16V535.761L231.243 518.872L221.046 501.283L228.857 472.222L222.05 470.403L216.052 492.683L212.741 486.967L218.191 466.688L211.385 464.869L207.747 478.38L200.171 465.311L194.069 468.818L201.645 481.887L188.084 478.263L186.259 485.044L206.612 490.474L209.924 496.19L187.563 490.214L185.737 496.996L214.905 504.777L225.414 522.913L231.412 545.231L221.32 539.424L216.013 519.678L209.207 521.496L212.701 534.474L204.265 529.629L197.563 504.686L190.757 506.505L195.647 524.666L187.211 519.808L179.101 489.669L172.294 491.487L178.579 514.845L168.487 509.038L163.18 489.292L156.374 491.111L159.868 504.089L144.613 495.32L141.093 501.399L156.348 510.168L143.322 513.65L145.148 520.431L164.967 515.144L175.059 520.951L151.615 527.213L153.44 533.994L183.69 525.913L192.126 530.772L173.898 535.644L175.724 542.425L200.758 535.748L209.194 540.606L196.181 544.088L198.007 550.869L217.826 545.582L227.918 551.389L204.474 557.65L204.513 557.767H184.264L162.919 536.501L157.939 541.464L174.302 557.78H167.679L152.775 542.932L147.794 547.894L157.717 557.78H142.579V564.795H157.717L147.794 574.682L152.775 579.644L167.679 564.795H174.302L157.939 581.099L162.919 586.062L184.264 564.795H206.156L227.8 570.576L217.708 576.383L197.889 571.096L196.064 577.877L209.09 581.359L200.654 586.218L175.619 579.54L173.794 586.321L192.022 591.193L183.586 596.052L153.336 587.971L151.511 594.753L174.954 601.014L164.862 606.821L145.043 601.534L143.218 608.315L156.244 611.797L140.988 620.566L144.509 626.645L159.764 617.876L156.27 630.841L163.076 632.66L168.383 612.914L178.475 607.107L172.19 630.465L178.996 632.283L187.106 602.144L195.542 597.286L190.653 615.447L197.459 617.266L204.161 592.323L212.597 587.465L209.103 600.43L215.909 602.248L221.216 582.502L231.308 576.695L225.023 600.053L225.14 600.092L214.905 617.76L185.737 625.541L187.563 632.322L209.924 626.347L206.612 632.063L186.259 637.493L188.084 644.274L201.645 640.65L194.069 653.718L200.171 657.226L207.747 644.157L211.385 657.668L218.191 655.849L212.741 635.57L216.052 629.854L222.05 652.134L228.857 650.315L221.046 621.254L232.116 602.157L247.958 586.373V597.974L233.446 612.433L238.427 617.396L247.958 607.899V617.604L229.639 635.856L234.62 640.819L247.971 627.516V637.22L225.832 659.279L230.812 664.241L247.971 647.145V658.746L233.459 673.205L238.44 678.168L247.971 668.671V686.222H255.012V668.671L264.544 678.168L269.524 673.205L255.012 658.746V647.145L272.171 664.241L277.152 659.279L255.012 637.22V627.516L268.364 640.819L273.345 635.856L255.025 617.604V607.899L264.557 617.396L269.537 612.433L255.025 597.974V586.373L271.976 603.262L282.407 621.254L274.596 650.315L281.403 652.134L287.401 629.854L290.712 635.57L285.262 655.849L292.068 657.668L295.706 644.157L303.282 657.226L309.384 653.718L301.808 640.65L315.369 644.274L317.194 637.493L296.841 632.063L293.529 626.347L315.89 632.322L317.716 625.541L288.548 617.76L277.804 599.221L271.806 576.903L281.898 582.71L287.205 602.456L294.011 600.637L290.517 587.659L298.953 592.505L305.668 617.448L312.474 615.629L307.585 597.468L316.021 602.326L324.131 632.465L330.937 630.647L324.652 607.289L334.744 613.096L340.051 632.842L346.857 631.023L343.363 618.045L358.618 626.814L362.139 620.734L346.883 611.966L359.857 608.38ZM248.01 567.484V576.344L235.363 588.946L240.018 571.616L247.724 567.186L244.203 561.106L236.497 565.536L219.221 560.924L236.615 556.286L244.32 560.716L247.841 554.636L240.135 550.207L235.506 532.994L248.232 545.673V554.533H255.273V545.673L267.921 533.071L263.266 550.401L255.56 554.831L259.08 560.911L266.786 556.481L284.063 561.093L266.669 565.731L258.963 561.301L255.443 567.381L263.148 571.811L267.777 589.024L255.051 576.344V567.484H248.01Z" fill="white"/>
<path d="M247.964 762.359C243.771 762.359 240.173 764.913 238.635 768.554H215.772L238.418 745.908L232.876 740.366L204.688 768.554H191.776L224.636 735.695L219.384 730.443V723.363H172.916L182.042 714.238H221.908V706.404H189.876L206.051 690.228C207.256 690.721 208.547 690.982 209.881 690.982C212.58 690.982 215.119 689.938 217.034 688.023C220.98 684.077 220.98 677.664 217.034 673.718C215.119 671.803 212.58 670.759 209.881 670.759C207.183 670.759 204.644 671.803 202.729 673.718C200.814 675.633 199.77 678.172 199.77 680.87C199.77 682.205 200.031 683.496 200.524 684.7L184.348 700.876V668.844H176.514V708.71L167.389 717.836V671.383H159.976L154.97 666.377L122.111 699.237V686.325L150.299 658.137L144.757 652.595L122.111 675.241V652.378C125.752 650.84 128.305 647.242 128.305 643.049C128.305 637.478 123.765 632.938 118.194 632.938C112.623 632.938 108.082 637.478 108.082 643.049C108.082 647.242 110.635 650.84 114.277 652.378V675.241L91.6304 652.595L86.0885 658.137L114.277 686.325V699.237L81.4172 666.377L76.1654 671.629H69.0857V718.097L59.9604 708.972V669.105H52.1264V701.138L35.9505 684.962C36.4437 683.757 36.7049 682.466 36.7049 681.132C36.7049 678.433 35.6603 675.894 33.7453 673.979C31.8303 672.064 29.2915 671.02 26.5931 671.02C23.8947 671.02 21.3559 672.079 19.4409 673.979C15.4948 677.925 15.4948 684.338 19.4409 688.284C21.3559 690.199 23.8947 691.243 26.5931 691.243C27.9278 691.243 29.219 690.982 30.4231 690.489L46.599 706.665H14.5663V714.499H54.4331L63.5583 723.624H17.1052V731.038L12.1 736.043L44.9597 768.902H32.0479L3.85976 740.714L-1.68213 746.256L20.9641 768.902H-1.89978C-3.43758 765.261 -7.03544 762.708 -11.2281 762.708C-16.799 762.708 -21.3398 767.248 -21.3398 772.819C-21.3398 778.39 -16.799 782.931 -11.2281 782.931C-7.03544 782.931 -3.43758 780.378 -1.89978 776.736H20.9641L-1.68213 799.383L3.85976 804.925L32.0479 776.736H44.9597L12.1 809.596L17.3518 814.848V821.927H63.8195L54.6942 831.053H14.8275V838.887H46.8602L30.6842 855.063C29.4801 854.569 28.1889 854.308 26.8542 854.308C24.1558 854.308 21.617 855.353 19.702 857.268C15.7559 861.214 15.7559 867.626 19.702 871.572C21.617 873.487 24.1558 874.532 26.8542 874.532C29.5526 874.532 32.0914 873.487 34.0064 871.572C35.9214 869.657 36.966 867.118 36.966 864.42C36.966 863.085 36.7048 861.794 36.2116 860.59L52.3875 844.414V876.447H60.2216V836.58L69.3469 827.455V873.922H76.7601L81.7653 878.928L114.625 846.068V858.98L86.4367 887.168L91.9787 892.71L114.625 870.064V892.927C110.984 894.465 108.43 898.063 108.43 902.256C108.43 907.827 112.971 912.367 118.542 912.367C124.113 912.367 128.654 907.827 128.654 902.256C128.654 898.063 126.1 894.465 122.459 892.927V870.064L145.105 892.71L150.647 887.168L122.459 858.98V846.068L155.319 878.928L160.57 873.676H167.65V827.208L176.775 836.333V876.2H184.609V844.167L200.785 860.343C199.306 863.999 200.031 868.352 202.99 871.311C204.905 873.226 207.444 874.271 210.143 874.271C212.841 874.271 215.38 873.212 217.295 871.311C221.241 867.365 221.241 860.953 217.295 857.007C215.38 855.092 212.841 854.047 210.143 854.047C208.808 854.047 207.517 854.308 206.313 854.802L190.137 838.626H222.169V830.792H182.303L173.177 821.666H219.645V814.253L224.65 809.248L191.791 776.388H204.702L232.89 804.576L238.432 799.034L215.786 776.388H238.65C240.188 780.03 243.786 782.583 247.978 782.583C253.549 782.583 258.09 778.042 258.09 772.471C258.076 766.9 253.535 762.359 247.964 762.359ZM103.831 792.97L98.2894 787.428L89.9331 795.785H62.8474L81.8958 776.736H93.7195V768.902H81.8958L62.7459 749.752H89.6864L98.0428 758.109L103.585 752.567L95.2284 744.21V718.358L114.277 737.406V747.997H122.111V737.406L141.261 718.256V743.964L132.904 752.32L138.446 757.862L146.803 749.506H173.888L154.84 768.554H143.016V776.388H154.84L173.99 795.538H147.049L138.693 787.182L133.151 792.724L141.507 801.08V828.166L122.459 809.117V797.294H114.625V809.117L95.4749 828.267V801.327L103.831 792.97ZM180.707 768.554H163.457L178.473 753.539C180.098 754.612 182.012 755.193 184 755.193C186.698 755.193 189.237 754.134 191.152 752.233C193.067 750.318 194.112 747.779 194.112 745.081C194.112 742.382 193.067 739.844 191.152 737.929C189.237 736.014 186.698 734.969 184 734.969C181.302 734.969 178.763 736.014 176.848 737.929C175.339 739.437 174.396 741.338 174.048 743.398H152.896L165.097 731.197H218.049L180.707 768.554ZM114.277 726.323L99.6966 711.743C101.728 707.927 101.176 703.082 97.9701 699.861C96.0551 697.946 93.5164 696.901 90.818 696.901C88.1196 696.901 85.5807 697.946 83.6657 699.861C81.7507 701.776 80.7063 704.315 80.7063 707.013C80.7063 709.711 81.7507 712.25 83.6657 714.165C85.1745 715.674 87.075 716.617 89.1351 716.965V738.117L76.9342 725.916V672.964L114.277 710.306V726.323V726.323ZM83.5933 743.659H62.3687C61.4112 739.075 57.3346 735.607 52.4746 735.607C46.9037 735.607 42.3628 740.148 42.3628 745.719C42.3628 751.29 46.9037 755.831 52.4746 755.831C54.6652 755.831 56.6817 755.135 58.3356 753.945L73.2784 768.888H56.0289L18.5849 731.444H71.3924L83.5933 743.659ZM56.0289 776.736H73.2784L58.2631 791.752C56.6382 790.678 54.7232 790.098 52.7357 790.098C50.0373 790.098 47.4985 791.157 45.5835 793.057C43.6685 794.972 42.6239 797.511 42.6239 800.21C42.6239 802.908 43.6685 805.447 45.5835 807.362C47.4985 809.277 50.0373 810.321 52.7357 810.321C55.4341 810.321 57.9729 809.277 59.8879 807.362C61.3967 805.853 62.3397 803.952 62.6879 801.892H83.8398L71.639 814.093H18.6864L56.0289 776.736ZM122.459 817.735L137.46 832.736C134.892 836.653 135.327 841.977 138.766 845.415C140.681 847.33 143.219 848.375 145.918 848.375C148.616 848.375 151.155 847.33 153.07 845.415C154.985 843.5 156.029 840.961 156.029 838.263C156.029 835.564 154.985 833.026 153.07 831.111C151.561 829.602 149.661 828.659 147.601 828.311V807.173L159.801 819.374V872.327L122.459 834.984V817.735V817.735ZM153.142 801.631H174.367C175.324 806.216 179.401 809.683 184.261 809.683C189.832 809.683 194.373 805.142 194.373 799.571C194.373 794 189.832 789.46 184.261 789.46C182.071 789.46 180.054 790.156 178.4 791.345L163.457 776.403H180.707L218.151 813.847H165.343L153.142 801.631ZM159.555 725.684L147.354 737.885V716.646C151.938 715.689 155.406 711.612 155.406 706.752C155.406 701.181 150.865 696.64 145.294 696.64C139.723 696.64 135.182 701.181 135.182 706.752C135.182 708.623 135.704 710.364 136.589 711.859L122.125 726.323V710.306L159.569 672.862V725.684H159.555ZM77.1809 819.606L89.3818 807.405V828.63C84.7974 829.587 81.33 833.664 81.33 838.524C81.33 844.095 85.8708 848.636 91.4417 848.636C97.0126 848.636 101.554 844.095 101.554 838.524C101.554 836.333 100.857 834.317 99.6676 832.663L114.61 817.72V834.97L77.1664 872.414V819.606H77.1809Z" fill="white"/>
<path d="M425.526 761.349L401.495 769.619L392.699 765.321L416.194 757.236L413.842 750.408L383.509 760.846L374.982 756.687L402.975 747.053L401.182 741.848L402.296 736.134L373.236 730.484L381.103 725.18L412.591 731.302L413.972 724.213L389.582 719.472L397.696 713.993L422.642 718.844L424.023 711.756L406.165 708.285L420.009 698.952L420.239 698.797L416.2 692.811L402.126 702.299L405.541 684.715L405.596 684.442L398.508 683.061L393.656 708.007L385.533 713.486L390.219 689.369L390.275 689.096L383.186 687.715L377.064 719.203L369.198 724.507L374.793 695.72L374.848 695.447L369.445 694.394L365.055 690.578L345.629 712.92L344.969 703.457L366.011 679.256L360.564 674.52L344.258 693.274L343.576 683.506L360.251 664.328L354.804 659.591L342.865 673.323L341.68 656.357L334.472 656.86L335.654 673.789L321.923 661.85L317.187 667.297L336.365 683.973L337.047 693.74L318.294 677.434L313.558 682.89L337.759 703.933L338.419 713.395L316.077 693.969L312.467 698.121L306.963 700.019L316.597 728.012L308.07 723.853L297.725 693.792L297.633 693.53L290.805 695.882L298.889 719.377L290.093 715.088L281.823 691.058L274.995 693.411L280.913 710.613L265.907 703.294L265.657 703.172L262.488 709.661L277.744 717.102L260.542 723.02L262.895 729.848L286.925 721.578L295.721 725.876L272.226 733.96L274.579 740.788L304.911 730.351L313.438 734.51L285.445 744.143L287.239 749.348L286.124 755.063L315.184 760.713L307.317 766.017L275.838 759.894L274.457 766.983L298.848 771.724L290.734 777.203L265.788 772.352L264.407 779.44L282.264 782.911L268.421 792.244L268.19 792.399L272.23 798.385L286.304 788.897L282.888 806.481L282.833 806.754L289.922 808.135L294.773 783.189L302.897 777.71L298.21 801.827L298.155 802.1L305.244 803.481L311.365 771.993L319.232 766.689L313.636 795.476L313.581 795.749L318.985 796.802L323.374 800.618L342.8 778.276L343.461 787.739L322.419 811.94L327.866 816.676L344.172 797.922L344.854 807.69L328.178 826.868L333.625 831.605L345.565 817.873L346.747 834.802L353.954 834.299L352.773 817.37L366.504 829.309L371.24 823.853L352.061 807.177L351.379 797.41L370.133 813.716L374.868 808.259L350.668 787.217L350.009 777.791L372.352 797.218L375.962 793.066L381.466 791.168L371.832 763.175L380.359 767.334L390.704 797.394L390.796 797.657L397.624 795.305L389.54 771.81L398.336 776.098L406.606 800.129L413.434 797.776L407.516 780.574L422.522 787.893L422.772 788.015L425.941 781.526L410.685 774.085L427.887 768.167L425.526 761.349ZM339.724 745.916L341.698 741.869L346.189 741.555L348.706 745.289L346.732 749.336L342.241 749.65L339.724 745.916ZM351.429 745.192L364.767 736.191L395.145 742.103L365.801 752.202L351.429 745.192ZM347.47 739.154L346.349 723.103L366.661 699.742L360.737 730.205L347.47 739.154ZM340.255 739.555L325.797 732.505L315.722 703.243L339.142 723.606L340.255 739.555V739.555ZM337.001 746.013L323.663 755.014L293.285 749.102L322.629 739.003L337.001 746.013ZM340.96 752.051L342.081 768.103L321.769 791.463L327.693 761.001L340.96 752.051ZM348.175 751.65L362.633 758.701L372.708 787.963L349.289 767.6L348.175 751.65V751.65Z" fill="white"/>
</g>
</svg>
