<?xml version="1.0" encoding="UTF-8" standalone="no"?>
<!-- Created with Inkscape (http://www.inkscape.org/) -->

<svg
   xmlns:dc="http://purl.org/dc/elements/1.1/"
   xmlns:cc="http://creativecommons.org/ns#"
   xmlns:rdf="http://www.w3.org/1999/02/22-rdf-syntax-ns#"
   xmlns:svg="http://www.w3.org/2000/svg"
   xmlns="http://www.w3.org/2000/svg"
   version="1.1"
   width="406"
   height="146"
   id="svg2"
   xml:space="preserve"><metadata
     id="metadata8"><rdf:RDF><cc:Work
         rdf:about=""><dc:format>image/svg+xml</dc:format><dc:type
           rdf:resource="http://purl.org/dc/dcmitype/StillImage" /><dc:title></dc:title></cc:Work></rdf:RDF></metadata><defs
     id="defs6"><clipPath
       id="clipPath16"><path
         d="m 0,0 1190.55,0 0,841.89 L 0,841.89 0,0 z"
         id="path18" /></clipPath><clipPath
       id="clipPath24"><path
         d="m -32768,32767 65535,0 0,-65535 -65535,0 0,65535 z"
         id="path26" /></clipPath><radialGradient
       cx="0"
       cy="0"
       r="1"
       fx="0"
       fy="0"
       id="radialGradient28"
       gradientUnits="userSpaceOnUse"
       gradientTransform="matrix(986.32404,0,0,-994.62189,630.17969,438.86572)"
       spreadMethod="pad"><stop
         id="stop30"
         style="stop-color:#ffffff;stop-opacity:0"
         offset="0" /><stop
         id="stop32"
         style="stop-color:#ffffff;stop-opacity:1"
         offset="1" /></radialGradient><mask
       id="mask34"><g
         id="g36"><g
           clip-path="url(#clipPath24)"
           id="g38"><g
             id="g40"><g
               id="g42"><path
                 d="m -32768,32767 65535,0 0,-65535 -65535,0 0,65535 z"
                 id="path44"
                 style="fill:url(#radialGradient28);stroke:none" /></g></g></g></g></mask><radialGradient
       cx="0"
       cy="0"
       r="1"
       fx="0"
       fy="0"
       id="radialGradient50"
       gradientUnits="userSpaceOnUse"
       gradientTransform="matrix(986.32404,0,0,-994.62189,630.17969,438.86572)"
       spreadMethod="pad"><stop
         id="stop52"
         style="stop-color:#ffffff;stop-opacity:1"
         offset="0" /><stop
         id="stop54"
         style="stop-color:#eaeaea;stop-opacity:1"
         offset="1" /></radialGradient><clipPath
       id="clipPath84"><path
         d="m 0,841.89 1190.55,0 L 1190.55,0 0,0 0,841.89 z"
         id="path86" /></clipPath><clipPath
       id="clipPath164"><path
         d="m 1290.817,-60.574 570.583,0 0,-792.099 -570.583,0 0,792.099 z"
         id="path166" /></clipPath><clipPath
       id="clipPath172"><path
         d="m 880.941,210.218 498.199,0 0,-1333.818 -498.199,0 0,1333.818 z"
         id="path174" /></clipPath></defs><g
     transform="matrix(1.25,0,0,-1.25,0,145.99995)"
     id="g10"><g
       transform="matrix(0.52930628,0,0,0.53016999,-125.37208,-290.09856)"
       id="g4016"><g
         transform="translate(417.50417,587.56304)"
         id="g88"><path
           d="m 0,0 c -38.474,38.472 -38.474,101.07 0,139.543 0.551,0.551 1.106,1.092 1.667,1.626 l -34.228,34.228 c -0.558,-0.539 -1.116,-1.075 -1.667,-1.624 -57.345,-57.347 -57.345,-150.656 0.001,-208.002 0.552,-0.55 1.111,-1.085 1.666,-1.625 L 1.667,-1.625 C 1.106,-1.092 0.551,-0.552 0,0"
           id="path90"
           style="fill:#1d4e9e;fill-opacity:1;fill-rule:nonzero;stroke:none" /></g><g
         transform="translate(277.29137,761.33404)"
         id="g92"><path
           d="m 0,0 c -0.553,0.551 -1.11,1.087 -1.668,1.626 l -34.228,-34.228 c 0.561,-0.534 1.116,-1.076 1.667,-1.626 38.473,-38.473 38.473,-101.072 0,-139.543 -0.551,-0.552 -1.106,-1.092 -1.667,-1.625 l 34.228,-34.231 c 0.557,0.542 1.118,1.077 1.666,1.627 C 57.345,-150.655 57.345,-57.345 0,0"
           id="path94"
           style="fill:#05a1e6;fill-opacity:1;fill-rule:nonzero;stroke:none" /></g><g
         transform="translate(573.87187,659.25634)"
         id="g96"><path
           d="m 0,0 37.092,54.999 31.816,0 L 30.696,0 l 42.369,-56.917 -34.374,0 L 0,0 z m -28.299,54.999 27.5,0 0,-111.917 -27.5,0 0,111.917 z"
           id="path98"
           style="fill:#231f20;fill-opacity:1;fill-rule:nonzero;stroke:none" /></g><g
         transform="translate(705.32847,672.78714)"
         id="g100"><path
           d="m 0,0 -12.03,0 -14.83,-21.903 19.665,0 c 8.793,0 14.229,-5.597 14.229,-13.431 0,-7.674 -5.436,-13.429 -14.229,-13.429 l -19.665,0 0,26.86 0,41.408 51.002,0 0,21.904 -78.501,0 0,-111.916 54.359,0 c 21.583,0 34.853,14.869 34.853,35.014 C 34.853,-15.028 19.825,0 0,0"
           id="path102"
           style="fill:#231f20;fill-opacity:1;fill-rule:nonzero;stroke:none" /></g><g
         transform="translate(801.94127,646.30664)"
         id="g104"><path
           d="M 0,0 -24.801,0 0,36.931 0,0 z m 44.019,0 -16.361,0 0,69.547 -26.251,0 -46.797,-69.594 0,-18.979 45.39,0 0,-24.942 27.658,0 0,24.942 16.361,0 0,19.026 z"
           id="path106"
           style="fill:#231f20;fill-opacity:1;fill-rule:nonzero;stroke:none" /></g><g
         transform="translate(523.02177,630.77584)"
         id="g108"><path
           d="m 0,0 c -7.408,-3.408 -16.035,-5.253 -23.925,-5.253 -19.346,0 -31.498,15.189 -31.498,32.774 0,17.589 12.152,32.617 31.498,32.617 7.907,0 16.553,-1.852 23.968,-5.274 l 14.028,20.718 c -10.785,6.553 -24.068,10.295 -37.996,10.295 -37.253,0 -59.315,-25.899 -59.315,-58.356 0,-32.615 22.062,-58.355 59.315,-58.355 13.91,0 27.175,3.603 37.953,10.114 L 0,0 z"
           id="path110"
           style="fill:#231f20;fill-opacity:1;fill-rule:nonzero;stroke:none" /></g></g></g></svg>