<svg width="3144" height="1000" xmlns="http://www.w3.org/2000/svg">

 <mask height="997" width="372" y="3" x="0" maskUnits="userSpaceOnUse" id="mask0_1091_8610">
  <path id="svg_1" fill="#05A1E6" d="m168.932,11.3833c-2.602,-2.59731 -5.224,-5.12396 -7.85,-7.66472l-161.082,161.34542c2.64016,2.517 5.25207,5.072 7.84517,7.665c181.05983,181.355 181.05983,476.437 0,657.783c-2.5931,2.602 -5.20501,5.147 -7.84517,7.66l161.082,161.359c2.622,-2.555 5.262,-5.077 7.841,-7.669c269.884,-270.315 269.884,-710.164 0.009,-980.4787z"/>
 </mask>
 <g>
  <title>background</title>
  <rect fill="none" id="canvas_background" height="602" width="802" y="-1" x="-1"/>
 </g>
 <g>
  <title>Layer 1</title>
  <path id="svg_2" fill="#231F20" d="m1564.69,492.559l174.56,-259.256l149.73,0l-179.83,259.256l199.39,268.298l-161.77,0l-182.08,-268.298zm-133.18,-259.256l129.42,0l0,527.558l-129.42,0l0,-527.558z"/>
  <path id="svg_3" fill="#231F20" d="m2183.34,428.778l-56.61,0l-69.79,103.247l92.54,0c41.38,0 66.97,26.384 66.97,63.312c0,36.174 -25.59,63.302 -66.97,63.302l-92.54,0l0,-126.614l0,-195.19l240.02,0l0,-103.252l-369.44,0l0,527.554l255.82,0c101.58,0 164.03,-70.09 164.03,-165.051c0,-96.468 -70.73,-167.308 -164.03,-167.308z"/>
  <path id="svg_4" fill="#231F20" d="m1325.38,626.814c-34.87,16.064 -75.47,24.761 -112.6,24.761c-91.04,0 -148.23,-71.598 -148.23,-154.491c0,-82.912 57.19,-153.751 148.23,-153.751c37.21,0 77.9,8.73 112.8,24.861l66.02,-97.662c-50.76,-30.889 -113.27,-48.529 -178.82,-48.529c-175.32,0 -279.143,122.084 -279.143,275.081c0,153.742 103.823,275.076 279.143,275.076c65.47,0 127.89,-16.984 178.62,-47.676l-66.02,-97.67z"/>
  <path id="svg_6" fill="#231F20" d="m2638.01,553.603l-116.71,0l116.71,-174.087l0,174.087zm207.17,0l-77,0l0,-327.833l-123.54,0l-220.24,328.055l0,89.464l213.61,0l0,117.572l130.17,0l0,-117.572l77,0l0,-89.686l0,0z"/>
  <path id="svg_9" fill="#F3EFE9" d="m3088.91,472.213c29.96,0 54.24,-24.285 54.23,-54.242c0,-29.957 -24.29,-54.242 -54.25,-54.242c-29.96,0 -54.24,24.285 -54.24,54.242c0.01,29.957 24.3,54.242 54.26,54.242z"/>
  <path id="svg_10" fill="#1D4E9E" d="m828.796,830.51c-181.064,-181.351 -181.064,-476.428 0,-657.784c2.594,-2.597 5.205,-5.147 7.846,-7.664l-161.083,-161.34562c-2.626,2.54076 -5.252,5.06742 -7.845,7.65532c-269.875,270.3243 -269.875,710.1683 0.005,980.4883c2.598,2.592 5.228,5.114 7.84,7.66l161.083,-161.35c-2.641,-2.513 -5.252,-5.058 -7.846,-7.66z"/>
  <path id="svg_11" fill="#05A1E6" d="m168.932,11.3833c-2.602,-2.59731 -5.224,-5.12396 -7.85,-7.66472l-161.082,161.34542c2.64016,2.517 5.25207,5.072 7.84517,7.665c181.05983,181.355 181.05983,476.437 0,657.783c-2.5931,2.602 -5.20501,5.147 -7.84517,7.66l161.082,161.359c2.622,-2.555 5.262,-5.077 7.841,-7.669c269.884,-270.315 269.884,-710.164 0.009,-980.4787z"/>
  <g id="svg_12" mask="url(#mask0_1091_8610)">
   <path id="svg_13" fill="white" d="m189.407,411.19c-0.699,-0.121 -1.403,-0.082 -2.091,0.135l-25.314,7.831l-10.188,-8.489l38.23,-11.829c1.14,-0.346 2.065,-1.124 2.62,-2.174c0.554,-1.051 0.66,-2.26 0.311,-3.398c-0.499,-1.604 -1.841,-2.775 -3.498,-3.063c-0.688,-0.12 -1.416,-0.073 -2.091,0.134l-43.73,13.538l-13.627,-11.357l20.441,-7.462c1.488,-0.541 2.587,-1.855 2.859,-3.418c0.272,-1.563 -0.322,-3.16 -1.538,-4.182l-17.291,-14.403l17.365,-6.341l36.597,27.5c0.575,0.436 1.213,0.709 1.923,0.832c1.658,0.288 3.316,-0.362 4.327,-1.703c0.712,-0.954 1.019,-2.117 0.853,-3.304c-0.167,-1.176 -0.787,-2.221 -1.732,-2.93l-31.996,-24.036l12.454,-4.553l21.187,15.914c0.575,0.436 1.213,0.709 1.912,0.83c1.657,0.288 3.315,-0.362 4.327,-1.703c0.711,-0.954 1.018,-2.117 0.853,-3.304c-0.168,-1.176 -0.787,-2.222 -1.733,-2.93l-16.573,-12.448l18.394,-6.718c1.117,-0.408 2.014,-1.225 2.516,-2.308c0.501,-1.082 0.549,-2.29 0.138,-3.404c-0.543,-1.485 -1.862,-2.583 -3.43,-2.855c-0.767,-0.133 -1.557,-0.062 -2.3,0.202l-18.395,6.718l4.563,-20.172c0.26,-1.159 0.061,-2.352 -0.578,-3.355c-0.639,-1.003 -1.631,-1.708 -2.794,-1.968c-2.41,-0.57 -4.791,0.962 -5.335,3.358l-5.83,25.789l-12.454,4.554l8.812,-38.939c0.26,-1.159 0.061,-2.352 -0.578,-3.355c-0.639,-1.003 -1.631,-1.708 -2.783,-1.966c-2.376,-0.564 -4.8,0.949 -5.335,3.358l-10.077,44.545l-17.365,6.34l3.846,-22.126c0.271,-1.563 -0.322,-3.16 -1.539,-4.183c-1.197,-0.995 -2.934,-1.297 -4.397,-0.764l-20.441,7.462l3.029,-17.426l42.144,-17.844c1.104,-0.469 1.95,-1.329 2.398,-2.433c0.447,-1.104 0.436,-2.31 -0.035,-3.411c-0.593,-1.401 -1.85,-2.384 -3.35,-2.644c-0.846,-0.147 -1.712,-0.043 -2.502,0.294l-36.85,15.591l2.264,-13.031l24.401,-10.33c1.104,-0.468 1.95,-1.329 2.398,-2.432c0.447,-1.104 0.436,-2.311 -0.035,-3.412c-0.592,-1.4 -1.85,-2.383 -3.35,-2.644c-0.846,-0.147 -1.712,-0.042 -2.502,0.295l-19.085,8.08l3.348,-19.259c0.42,-2.417 -1.211,-4.728 -3.636,-5.149c-2.424,-0.422 -4.739,1.203 -5.159,3.62l-3.348,19.26l-15.2384,-14.047c-0.6302,-0.584 -1.4103,-0.974 -2.256,-1.121c-1.4996,-0.261 -3.0175,0.251 -4.0463,1.358c-0.8127,0.866 -1.2321,2.01 -1.1834,3.2c0.0488,1.19 0.5552,2.285 1.4361,3.099l19.473,17.955l-2.265,13.031l-29.417,-27.109c-0.6302,-0.584 -1.4103,-0.974 -2.256,-1.121c-1.4997,-0.261 -3.0174,0.251 -4.0462,1.358c-0.8127,0.866 -1.2322,2.01 -1.1835,3.2c0.0488,1.19 0.5553,2.285 1.4362,3.099l33.6395,31.016l-3.1599,18.18l-16.7238,-13.922c-1.1976,-0.996 -2.9341,-1.298 -4.3975,-0.764c-1.4879,0.54 -2.5876,1.855 -2.8592,3.418l-3.7189,21.395l-14.2069,-11.828l5.5446,-45.332c0.2961,-2.439 -1.4523,-4.678 -3.8887,-4.962c-1.1824,-0.148 -2.3548,0.181 -3.2946,0.91c-0.9397,0.728 -1.5298,1.784 -1.6767,2.963l-4.8434,39.629l-10.1873,-8.489l3.2141,-26.244c0.2937,-2.358 -1.3047,-4.524 -3.6387,-4.93c-0.079,-0.013 -0.1691,-0.029 -0.25,-0.032c-1.1825,-0.147 -2.3548,0.182 -3.2946,0.91c-0.9398,0.729 -1.5298,1.785 -1.6767,2.964l-2.511,20.528l-15.049,-12.53c-0.5988,-0.498 -1.3304,-0.834 -2.0971,-0.967c-1.5673,-0.273 -3.1797,0.316 -4.1922,1.53c-1.58129,1.879 -1.31544,4.694 0.5708,6.273l15.0489,12.53l-19.80173,6.126c-2.34515,0.727 -3.6633,3.232 -2.93154,5.571c0.49947,1.604 1.84087,2.776 3.49839,3.064c0.69909,0.121 1.40294,0.081 2.07977,-0.137l25.31401,-7.831l10.1873,8.488l-38.22928,11.83c-1.14048,0.346 -2.06551,1.124 -2.61979,2.174c-0.55429,1.05 -0.65997,2.26 -0.3098,3.386c0.49946,1.604 1.8408,2.776 3.49831,3.064c0.69909,0.121 1.40301,0.081 2.07984,-0.137l43.73022,-13.537l13.6267,11.356l-20.4407,7.463c-1.4879,0.54 -2.5876,1.855 -2.8593,3.418c-0.2716,1.562 0.322,3.16 1.5383,4.182l17.2907,14.403l-17.3649,6.34l-36.59735,-27.499c-0.57476,-0.436 -1.21263,-0.709 -1.92299,-0.833c-1.65752,-0.288 -3.3155,0.362 -4.32697,1.704c-0.7117,0.953 -1.01836,2.116 -0.85101,3.292c0.16736,1.176 0.78707,2.222 1.73258,2.93l31.99534,24.036l-12.4541,4.554l-21.18672,-15.914c-0.57476,-0.436 -1.2127,-0.709 -1.92306,-0.833c-1.65752,-0.288 -3.31547,0.362 -4.32694,1.704c-1.47827,1.955 -1.08247,4.757 0.87966,6.234l16.57336,12.448l-18.39453,6.717c-2.30637,0.839 -3.49507,3.4 -2.654,5.713c0.54352,1.484 1.86279,2.582 3.4301,2.854c0.76674,0.134 1.55733,0.063 2.30031,-0.202l18.39462,-6.718l-4.5632,20.172c-0.25963,1.159 -0.0604,2.352 0.5784,3.355c0.6388,1.003 1.6314,1.708 2.783,1.967c0.079,0.013 0.1446,0.036 0.2235,0.05c2.3454,0.408 4.592,-1.09 5.1093,-3.398l5.8301,-25.789l12.4541,-4.553l-8.8125,38.938c-0.2596,1.16 -0.0604,2.353 0.5784,3.356c0.6388,1.003 1.6314,1.708 2.783,1.966c0.079,0.014 0.1447,0.037 0.2236,0.05c2.3453,0.408 4.592,-1.089 5.1093,-3.397l10.0773,-44.545l17.3649,-6.34l-3.8459,22.126c-0.2716,1.563 0.322,3.16 1.5382,4.182c0.5989,0.498 1.3304,0.834 2.0972,0.967c0.7667,0.133 1.5687,0.064 2.3004,-0.202l20.4406,-7.463l-3.0309,17.438l-42.1439,17.845c-1.0924,0.47 -1.9502,1.328 -2.3976,2.432c-0.4474,1.104 -0.4364,2.31 0.0344,3.411c0.5929,1.401 1.8508,2.384 3.3505,2.645c0.8457,0.147 1.7118,0.042 2.5003,-0.284l36.8388,-15.593l-2.2649,13.031l-24.3895,10.332c-1.0924,0.47 -1.9501,1.329 -2.3975,2.433c-0.4474,1.103 -0.4364,2.31 0.0343,3.411c0.593,1.4 1.8509,2.383 3.3505,2.644c0.8457,0.147 1.7118,0.043 2.5023,-0.295l19.0845,-8.08l-3.3418,19.226c-0.4201,2.417 1.2112,4.727 3.6354,5.149c2.4243,0.421 4.7395,-1.203 5.1596,-3.621l3.3476,-19.259l15.2382,14.046c0.631,0.585 1.422,0.977 2.256,1.122c1.5,0.261 3.018,-0.252 4.047,-1.358c0.812,-0.867 1.232,-2.01 1.183,-3.2c-0.049,-1.19 -0.555,-2.286 -1.436,-3.099l-19.484,-17.958l2.265,-13.031l29.417,27.109c0.63,0.585 1.421,0.977 2.256,1.122c1.499,0.261 3.017,-0.252 4.046,-1.358c0.813,-0.867 1.232,-2.01 1.183,-3.2c-0.048,-1.19 -0.555,-2.286 -1.436,-3.099l-33.5829,-31.007l3.158,-18.168l16.7239,13.922c1.197,0.995 2.934,1.297 4.397,0.764c1.488,-0.541 2.588,-1.855 2.86,-3.418l3.718,-21.396l14.207,11.829l-5.544,45.332c-0.294,2.358 1.318,4.515 3.663,4.923c0.079,0.013 0.147,0.025 0.227,0.027c1.183,0.148 2.355,-0.181 3.295,-0.91c0.94,-0.728 1.53,-1.784 1.677,-2.963l4.843,-39.628l10.187,8.489l-3.214,26.243c-0.293,2.359 1.318,4.515 3.663,4.923c0.079,0.013 0.147,0.025 0.228,0.028c1.182,0.147 2.355,-0.182 3.295,-0.91c0.939,-0.729 1.529,-1.784 1.676,-2.964l2.511,-20.528l15.049,12.531c0.599,0.498 1.331,0.833 2.097,0.966c1.568,0.273 3.18,-0.316 4.193,-1.529c0.762,-0.91 1.125,-2.064 1.018,-3.252c-0.107,-1.188 -0.676,-2.26 -1.589,-3.021l-15.049,-12.531l19.802,-6.125c1.142,-0.358 2.065,-1.124 2.619,-2.174c0.555,-1.051 0.66,-2.26 0.31,-3.387c-0.492,-1.579 -1.831,-2.762 -3.5,-3.052zm-115.1411,-26.129l18.023,-6.585l-3.4061,19.597l-18.0231,6.585l3.4062,-19.597zm47.4791,-26.82l-18.023,6.585l3.406,-19.596l18.023,-6.585l-3.406,19.596zm-14.944,14.939l18.023,-6.585l15.312,12.75l-18.023,6.585l-15.312,-12.75zm-11.8739,-9.882l-14.7438,-12.281l3.2791,-18.866l14.7439,12.281l-3.2792,18.866zm-5.7165,6.825l-18.0231,6.585l-15.3128,-12.75l18.023,-6.586l15.3129,12.751zm11.8734,9.882l14.744,12.28l-3.279,18.866l-14.7442,-12.28l3.2792,-18.866z"/>
   <path id="svg_14" fill="white" d="m163.984,148.813c13.301,-3.229 21.466,-16.629 18.237,-29.93c-3.229,-13.301 -16.629,-21.4662 -29.93,-18.237c-13.301,3.229 -21.466,16.629 -18.237,29.93c3.228,13.301 16.629,21.466 29.93,18.237z"/>
   <path id="svg_15" fill="white" d="m305.349,146.17l-12.707,-3.732l-4.02,13.684l-20.536,-6.027l9.758,-33.257l-12.707,-3.733l-9.758,33.257l-20.536,-6.028l6.889,-23.47l-12.706,-3.733l-6.89,23.471l-17.09,-5.011c0.868,-5.857 0.65,-11.94 -0.828,-18.031c-1.479,-6.092 -4.095,-11.61 -7.531,-16.4043l12.89,-12.2891l16.884,17.6994l9.581,-9.1431l-16.884,-17.6995l15.487,-14.7722l23.92,25.0811l9.581,-9.1432l-23.92,-25.0811l15.487,-14.7723l9.847,10.3178l9.581,-9.1432l-9.848,-10.3178l11.796,-11.2541l-9.144,-9.57966l-11.795,11.25406l-9.847,-10.31777l-9.581,9.14317l9.847,10.3178l-15.487,14.7723l-23.92,-25.0811l-9.581,9.1432l23.92,25.0811l-15.487,14.7723l-16.883,-17.6995l-9.581,9.1432l16.884,17.6995l-12.903,12.3095c-9.406,-7.4183 -21.519,-11.2253 -34,-9.996l-4.203,-17.3165l23.773,-5.7711l-3.126,-12.876l-23.773,5.7711l-5.049,-20.7996l33.678,-8.1758l-3.125,-12.87597l-33.679,8.17577l-5.049,-20.79963l13.867,-3.36647l-3.126,-12.876l-13.867,3.3665l-3.847,-15.8473l-12.877,3.126l3.847,15.8473l-13.868,3.3665l3.126,12.876l13.867,-3.36649l5.05,20.79959l-33.6791,8.1758l3.1257,12.876l33.6784,-8.1758l5.05,20.7997l-23.774,5.7711l3.126,12.876l23.773,-5.7712l4.2,17.3c-11.639,4.626 -20.674,13.5669 -25.632,24.472l-17.1105,-5.023l6.8895,-23.4711l-12.7067,-3.7328l-6.8894,23.4707l-20.5362,-6.0274l9.7584,-33.2569l-12.7066,-3.7328l-9.7583,33.2569l-20.5362,-6.0274l4.0205,-13.6843l-12.7396,-3.7247l-4.0205,13.6843l-15.64269,-4.5932l-3.73361,12.7056l15.6427,4.5933l-4.0205,13.6838l12.7065,3.733l4.0205,-13.6841l20.5362,6.0274l-9.7583,33.2567l12.7065,3.733l9.7584,-33.257l20.5362,6.027l-6.8895,23.471l12.7066,3.733l6.8894,-23.471l17.0902,5.011c-0.868,5.857 -0.65,11.94 0.828,18.031c1.479,6.092 4.095,11.61 7.531,16.404l-12.89,12.289l-16.8839,-17.699l-9.5808,9.143l16.8838,17.699l-15.4869,14.773l-23.9204,-25.081l-9.5808,9.143l23.9204,25.081l-15.4869,14.772l-9.8472,-10.318l-9.5809,9.144l9.8472,10.317l-11.7956,11.254l9.1436,9.58l11.7956,-11.254l9.8472,10.318l9.5808,-9.143l-9.8472,-10.318l15.4869,-14.772l23.9201,25.081l9.581,-9.144l-23.9202,-25.081l15.4872,-14.772l16.883,17.7l9.581,-9.144l-16.884,-17.699l12.903,-12.31c9.406,7.419 21.519,11.226 34,9.996l4.199,17.3l-23.773,5.771l3.126,12.876l23.773,-5.771l5.049,20.8l-33.678,8.176l3.125,12.876l33.679,-8.176l5.05,20.8l-13.868,3.366l3.126,12.876l13.867,-3.366l3.847,15.847l12.878,-3.126l-3.848,-15.848l13.868,-3.366l-3.126,-12.876l-13.867,3.367l-5.05,-20.8l33.679,-8.176l-3.126,-12.876l-33.678,8.176l-5.05,-20.8l23.774,-5.771l-3.126,-12.876l-23.773,5.771l-4.2,-17.3c11.639,-4.626 20.674,-13.567 25.632,-24.472l17.111,5.024l-6.89,23.47l12.707,3.733l6.889,-23.47l20.536,6.027l-9.758,33.257l12.707,3.733l9.758,-33.257l20.536,6.027l-4.02,13.684l12.706,3.733l4.021,-13.684l15.642,4.593l3.734,-12.706l-15.643,-4.593l4.058,-13.676zm-114.025,-29.48c4.44,18.29 -6.836,36.795 -25.129,41.236c-18.292,4.44 -36.798,-6.835 -41.238,-25.125c-4.44,-18.291 6.837,-36.7956 25.129,-41.2362c18.292,-4.4406 36.798,6.8344 41.238,25.1252z"/>
   <path id="svg_16" fill="white" d="m420.322,359.82l-16.847,4.707l5.555,-15.917l-7.225,-2.521l-5.665,16.209l-11.092,-3.875l7.926,-22.689l-7.225,-2.522l-7.926,22.689l-10.852,-3.791l4.523,-12.96l-7.225,-2.521l-4.523,12.96l-11.786,-4.109l3.434,-9.817l-6.791,-7.876l9.46,-8.141l8.957,10.402l5.799,-4.993l-8.957,-10.403l8.708,-7.503l15.688,18.208l5.799,-4.994l-15.687,-18.207l8.9,-7.67l11.209,13.007l5.8,-4.993l-11,-12.775l17.4,-1.793l6.143,-23.943l-24.597,2.534l-4.344,16.948l-11,-12.774l-5.799,4.993l11.209,13.006l-8.901,7.67l-15.687,-18.208l-5.8,4.994l15.688,18.207l-8.709,7.503l-8.957,-10.402l-5.799,4.993l8.957,10.402l-9.46,8.142l-6.656,-7.725l-0.135,-0.151l-10.213,1.938l-2.327,-12.262l13.492,-2.561l-1.426,-7.514l-13.481,2.558l-2.143,-11.294l23.613,-4.482l-1.426,-7.514l-23.613,4.482l-2.191,-11.545l16.861,-3.2l-1.426,-7.515l-16.565,3.144l7.148,-15.971l-17.672,-17.288l-10.108,22.56l12.502,12.242l-16.565,3.144l1.426,7.514l16.862,-3.2l2.191,11.545l-23.614,4.482l1.426,7.514l23.614,-4.482l2.143,11.295l-13.491,2.56l1.426,7.515l13.491,-2.561l2.328,12.262l-10.213,1.938l-3.433,9.817l-11.785,-4.109l4.523,-12.961l-7.226,-2.521l-4.523,12.961l-10.852,-3.792l7.926,-22.688l-7.225,-2.522l-7.926,22.689l-11.092,-3.875l5.664,-16.208l-7.225,-2.522l-5.555,15.917l-10.108,-13.982l-0.144,-0.197l-23.814,6.655l14.346,19.842l0.144,0.197l16.847,-4.708l-5.555,15.917l7.226,2.521l5.664,-16.209l11.092,3.876l-7.926,22.689l7.226,2.521l7.926,-22.689l10.851,3.791l-4.523,12.96l7.226,2.522l4.523,-12.961l11.785,4.109l-3.433,9.817l6.791,7.876l-9.46,8.142l-8.957,-10.403l-5.8,4.994l8.957,10.402l-8.708,7.503l-15.687,-18.207l-5.8,4.993l15.688,18.207l-8.901,7.67l-11.209,-13.007l-5.799,4.994l11,12.774l-17.401,1.793l-6.142,23.943l24.596,-2.533l4.344,-16.949l11,12.774l5.799,-4.993l-11.208,-13.006l8.9,-7.67l15.688,18.208l5.799,-4.993l-15.687,-18.208l8.708,-7.503l8.957,10.402l5.8,-4.993l-8.958,-10.402l9.46,-8.142l6.657,7.725l0.135,0.152l10.212,-1.939l2.327,12.262l-13.491,2.561l1.426,7.514l13.491,-2.56l2.144,11.294l-23.613,4.482l1.426,7.514l23.613,-4.482l2.191,11.545l-16.862,3.2l1.427,7.515l16.565,-3.144l-7.148,15.971l17.672,17.288l10.108,-22.56l-12.503,-12.242l16.566,-3.144l-1.426,-7.514l-16.862,3.2l-2.191,-11.545l23.614,-4.482l-1.427,-7.514l-23.613,4.482l-2.143,-11.295l13.491,-2.56l-1.426,-7.515l-13.492,2.561l-2.327,-12.262l10.213,-1.938l3.433,-9.817l11.785,4.109l-4.523,12.961l7.225,2.521l4.524,-12.961l10.851,3.792l-7.925,22.688l7.225,2.522l7.926,-22.689l11.092,3.875l-5.664,16.209l7.225,2.521l5.555,-15.917l10.108,13.982l0.143,0.197l23.815,-6.655l-14.347,-19.842l-0.155,-0.194zm-6.253,17.889l-4.929,-6.826l8.109,-2.27l4.929,6.826l-8.109,2.27zm-71.328,-40.404l-6.465,18.519l-19.275,3.659l-12.811,-14.861l6.464,-18.519l19.276,-3.658l12.811,14.86zm59.942,-64.585l-2.085,8.157l-8.377,0.858l2.085,-8.157l8.377,-0.858zm-98.715,-34.487l6.013,5.889l-3.437,7.683l-6.013,-5.889l3.437,-7.683zm-71.106,65.985l4.928,6.826l-8.109,2.271l-4.929,-6.826l8.11,-2.271zm11.385,104.99l2.085,-8.157l8.377,-0.859l-2.085,8.157l-8.377,0.859zm98.715,34.486l-6.013,-5.889l3.438,-7.682l6.012,5.889l-3.437,7.682z"/>
   <path id="svg_17" fill="white" d="m235.091,1001.82l-12.425,0.24l6.654,-9.958l-4.521,-3.02l-6.781,10.14l-6.939,-4.64l9.49,-14.194l-4.521,-3.02l-9.489,14.194l-6.789,-4.538l5.418,-8.109l-4.521,-3.02l-5.418,8.109l-7.374,-4.924l4.109,-6.141l-3.269,-6.625l7.955,-3.916l4.309,8.749l4.877,-2.402l-4.309,-8.749l7.325,-3.61l7.549,15.314l4.877,-2.402l-7.549,-15.314l7.487,-3.691l5.394,10.94l4.878,-2.402l-5.292,-10.743l12.286,1.864l8.486,-15.374l-17.367,-2.636l-6.004,10.884l-5.292,-10.744l-4.877,2.402l5.394,10.94l-7.487,3.691l-7.549,-15.314l-4.877,2.402l7.549,15.314l-7.325,3.611l-4.309,-8.749l-4.877,2.402l4.309,8.749l-7.955,3.915l-3.203,-6.497l-0.066,-0.128l-7.369,-0.485l0.582,-8.848l9.735,0.641l0.356,-5.422l-9.726,-0.64l0.536,-8.149l17.038,1.12l0.356,-5.422l-17.038,-1.12l0.548,-8.33l12.166,0.8l0.357,-5.422l-11.953,-0.786l7.759,-9.712l-9.077,-15.036l-10.968,13.717l6.421,10.645l-11.953,-0.786l-0.357,5.422l12.167,0.8l-0.548,8.33l-17.038,-1.121l-0.357,5.422l17.038,1.121l-0.536,8.149l-9.735,-0.64l-0.356,5.422l9.735,0.64l-0.582,8.848l-7.369,-0.485l-4.108,6.141l-7.374,-4.924l5.417,-8.109l-4.52,-3.02l-5.418,8.109l-6.789,-4.539l9.489,-14.194l-4.52,-3.02l-9.49,14.194l-6.938,-4.639l6.78,-10.14l-4.521,-3.02l-6.653,9.958l-4.463,-11.415l-0.064,-0.161l-17.563,0.338l6.335,16.2l0.064,0.161l12.425,-0.239l-6.654,9.959l4.521,3.02l6.781,-10.14l6.939,4.639l-9.49,14.194l4.521,3.02l9.489,-14.194l6.789,4.539l-5.418,8.109l4.521,3.02l5.418,-8.109l7.374,4.924l-4.109,6.14l3.269,6.626l-7.955,3.916l-4.309,-8.749l-4.877,2.402l4.309,8.749l-7.325,3.61l-7.549,-15.314l-4.877,2.402l7.549,15.314l-7.487,3.691l-5.394,-10.94l-4.878,2.402l5.292,10.743l-12.286,-1.864l-8.4863,15.377l17.3673,2.63l6.004,-10.88l5.292,10.74l4.877,-2.4l-5.394,-10.94l7.487,-3.69l7.549,15.31l4.877,-2.4l-7.549,-15.312l7.325,-3.611l4.309,8.749l4.877,-2.402l-4.309,-8.749l7.955,-3.915l3.203,6.497l0.066,0.128l7.369,0.485l-0.582,8.848l-9.735,-0.641l-0.356,5.423l9.735,0.64l-0.536,8.15l-17.038,-1.12l-0.357,5.42l17.038,1.12l-0.548,8.33l-12.166,-0.8l-0.357,5.42l11.953,0.79l-7.759,9.71l9.077,15.04l10.968,-13.72l-6.42,-10.65l11.953,0.79l0.356,-5.42l-12.166,-0.8l0.547,-8.33l17.038,1.12l0.357,-5.42l-17.038,-1.12l0.536,-8.15l9.735,0.64l0.356,-5.425l-9.734,-0.64l0.581,-8.847l7.369,0.484l4.109,-6.14l7.374,4.923l-5.418,8.109l4.521,3.02l5.417,-8.109l6.789,4.539l-9.489,14.196l4.521,3.02l9.489,-14.196l6.939,4.636l-6.781,10.14l4.521,3.02l6.653,-9.96l4.464,11.42l0.063,0.16l17.563,-0.34l-6.335,-16.2l-0.072,-0.16zm-7.485,11.19l-2.175,-5.57l5.982,-0.12l2.174,5.57l-5.981,0.12zm-41.866,-40.481l-7.742,11.586l-13.908,-0.915l-6.166,-12.501l7.742,-11.586l13.908,0.915l6.166,12.501zm52.722,-33.751l-2.886,5.239l-5.914,-0.901l2.885,-5.239l5.915,0.901zm-61.755,-41.288l3.087,5.12l-3.731,4.672l-3.087,-5.12l3.731,-4.672zm-60.649,32.726l2.175,5.572l-5.981,0.118l-2.175,-5.572l5.981,-0.118zm-10.855,74.234l2.885,-5.239l5.915,0.899l-2.886,5.24l-5.914,-0.9zm61.754,41.29l-3.087,-5.12l3.731,-4.67l3.088,5.12l-3.732,4.67z"/>
   <path id="svg_18" fill="white" d="m359.857,608.38l-1.825,-6.781l-19.819,5.287l-10.092,-5.807l23.443,-6.261l-1.825,-6.782l-30.25,8.081l-8.436,-4.859l18.228,-4.872l-1.825,-6.781l-25.035,6.677l-8.436,-4.858l13.013,-3.482l-1.826,-6.781l-19.819,5.287l-10.092,-5.807l22.401,-5.975l21.488,0l21.344,21.266l4.981,-4.963l-16.363,-16.303l6.623,0l14.904,14.848l4.98,-4.962l-9.922,-9.886l15.138,0l0,-7.016l-15.138,0l9.922,-9.886l-4.98,-4.962l-14.904,14.848l-6.623,0l16.363,-16.316l-4.981,-4.963l-21.344,21.266l-20.627,0l-23.157,-6.183l10.092,-5.807l19.819,5.287l1.825,-6.781l-13.026,-3.482l8.436,-4.858l25.035,6.677l1.825,-6.781l-18.228,-4.872l8.436,-4.859l30.25,8.081l1.826,-6.781l-23.444,-6.262l10.092,-5.807l19.819,5.287l1.825,-6.781l-13.025,-3.482l15.255,-8.769l-3.521,-6.079l-15.255,8.769l3.494,-12.978l-6.806,-1.819l-5.307,19.746l-10.092,5.807l6.285,-23.358l-6.806,-1.818l-8.11,30.139l-8.436,4.858l4.889,-18.161l-6.806,-1.819l-6.702,24.943l-8.436,4.858l3.494,-12.965l-6.806,-1.818l-5.307,19.746l-10.092,5.807l5.998,-22.319l10.627,-18.343l29.167,-7.781l-1.825,-6.782l-22.361,5.976l3.311,-5.716l20.354,-5.43l-1.825,-6.781l-13.561,3.624l7.576,-13.069l-6.102,-3.507l-7.576,13.069l-3.573,-13.381l-6.806,1.819l5.45,20.279l-3.311,5.716l-5.998,-22.28l-6.807,1.819l7.811,29.061l-10.197,17.589l-16.95,16.889l0,-11.601l14.512,-14.459l-4.981,-4.963l-9.531,9.497l0,-9.705l18.319,-18.252l-4.98,-4.963l-13.352,13.303l0,-9.704l22.14,-22.059l-4.981,-4.962l-17.159,17.096l0,-11.601l14.512,-14.459l-4.981,-4.963l-9.531,9.497l0,-17.564l-7.041,0l0,17.551l-9.531,-9.496l-4.981,4.962l14.512,14.459l0,11.601l-17.159,-17.096l-4.981,4.962l22.14,22.059l0,9.704l-13.352,-13.302l-4.98,4.962l18.319,18.252l0,9.705l-9.531,-9.497l-4.981,4.963l14.512,14.459l0,11.601l-16.95,-16.889l-10.197,-17.589l7.811,-29.061l-6.807,-1.819l-5.998,22.28l-3.311,-5.716l5.45,-20.279l-6.806,-1.819l-3.638,13.511l-7.576,-13.069l-6.102,3.507l7.576,13.069l-13.561,-3.624l-1.825,6.781l20.353,5.43l3.312,5.716l-22.361,-5.976l-1.826,6.782l29.168,7.781l10.509,18.136l5.998,22.318l-10.092,-5.807l-5.307,-19.746l-6.806,1.818l3.494,12.978l-8.436,-4.845l-6.702,-24.943l-6.806,1.819l4.89,18.161l-8.436,-4.858l-8.11,-30.139l-6.807,1.818l6.285,23.358l-10.092,-5.807l-5.307,-19.746l-6.806,1.819l3.494,12.978l-15.255,-8.769l-3.52,6.079l15.255,8.769l-13.026,3.482l1.826,6.781l19.819,-5.287l10.092,5.807l-23.444,6.262l1.825,6.781l30.25,-8.081l8.436,4.859l-18.228,4.872l1.826,6.781l25.034,-6.677l8.436,4.858l-13.013,3.482l1.826,6.781l19.819,-5.287l10.092,5.807l-23.444,6.261l0.039,0.117l-20.249,0l-21.345,-21.266l-4.98,4.963l16.363,16.316l-6.623,0l-14.904,-14.848l-4.981,4.962l9.923,9.886l-15.138,0l0,7.015l15.138,0l-9.923,9.887l4.981,4.962l14.904,-14.849l6.623,0l-16.363,16.304l4.98,4.963l21.345,-21.267l21.892,0l21.644,5.781l-10.092,5.807l-19.819,-5.287l-1.825,6.781l13.026,3.482l-8.436,4.859l-25.035,-6.678l-1.825,6.781l18.228,4.872l-8.436,4.859l-30.25,-8.081l-1.825,6.782l23.443,6.261l-10.092,5.807l-19.819,-5.287l-1.825,6.781l13.026,3.482l-15.256,8.769l3.521,6.079l15.255,-8.769l-3.494,12.965l6.806,1.819l5.307,-19.746l10.092,-5.807l-6.285,23.358l6.806,1.818l8.11,-30.139l8.436,-4.858l-4.889,18.161l6.806,1.819l6.702,-24.943l8.436,-4.858l-3.494,12.965l6.806,1.818l5.307,-19.746l10.092,-5.807l-6.285,23.358l0.117,0.039l-10.235,17.668l-29.168,7.781l1.826,6.781l22.361,-5.975l-3.312,5.716l-20.353,5.43l1.825,6.781l13.561,-3.624l-7.576,13.068l6.102,3.508l7.576,-13.069l3.638,13.511l6.806,-1.819l-5.45,-20.279l3.311,-5.716l5.998,22.28l6.807,-1.819l-7.811,-29.061l11.07,-19.097l15.842,-15.784l0,11.601l-14.512,14.459l4.981,4.963l9.531,-9.497l0,9.705l-18.319,18.252l4.981,4.963l13.351,-13.303l0,9.704l-22.139,22.059l4.98,4.962l17.159,-17.096l0,11.601l-14.512,14.459l4.981,4.963l9.531,-9.497l0,17.551l7.041,0l0,-17.551l9.532,9.497l4.98,-4.963l-14.512,-14.459l0,-11.601l17.159,17.096l4.981,-4.962l-22.14,-22.059l0,-9.704l13.352,13.303l4.981,-4.963l-18.32,-18.252l0,-9.705l9.532,9.497l4.98,-4.963l-14.512,-14.459l0,-11.601l16.951,16.889l10.431,17.992l-7.811,29.061l6.807,1.819l5.998,-22.28l3.311,5.716l-5.45,20.279l6.806,1.819l3.638,-13.511l7.576,13.069l6.102,-3.508l-7.576,-13.068l13.561,3.624l1.825,-6.781l-20.353,-5.43l-3.312,-5.716l22.361,5.975l1.826,-6.781l-29.168,-7.781l-10.744,-18.539l-5.998,-22.318l10.092,5.807l5.307,19.746l6.806,-1.819l-3.494,-12.978l8.436,4.846l6.715,24.943l6.806,-1.819l-4.889,-18.161l8.436,4.858l8.11,30.139l6.806,-1.818l-6.285,-23.358l10.092,5.807l5.307,19.746l6.806,-1.819l-3.494,-12.978l15.255,8.769l3.521,-6.08l-15.256,-8.768l12.974,-3.586zm-111.847,-40.896l0,8.86l-12.647,12.602l4.655,-17.33l7.706,-4.43l-3.521,-6.08l-7.706,4.43l-17.276,-4.612l17.394,-4.638l7.705,4.43l3.521,-6.08l-7.706,-4.429l-4.629,-17.213l12.726,12.679l0,8.86l7.041,0l0,-8.86l12.648,-12.602l-4.655,17.33l-7.706,4.43l3.52,6.08l7.706,-4.43l17.277,4.612l-17.394,4.638l-7.706,-4.43l-3.52,6.08l7.705,4.43l4.629,17.213l-12.726,-12.68l0,-8.86l-7.041,0z"/>
   <path id="svg_19" fill="white" d="m247.964,762.359c-4.193,0 -7.791,2.554 -9.329,6.195l-22.863,0l22.646,-22.646l-5.542,-5.542l-28.188,28.188l-12.912,0l32.86,-32.859l-5.252,-5.252l0,-7.08l-46.468,0l9.126,-9.125l39.866,0l0,-7.834l-32.032,0l16.175,-16.176c1.205,0.493 2.496,0.754 3.83,0.754c2.699,0 5.238,-1.044 7.153,-2.959c3.946,-3.946 3.946,-10.359 0,-14.305c-1.915,-1.915 -4.454,-2.959 -7.153,-2.959c-2.698,0 -5.237,1.044 -7.152,2.959c-1.915,1.915 -2.959,4.454 -2.959,7.152c0,1.335 0.261,2.626 0.754,3.83l-16.176,16.176l0,-32.032l-7.834,0l0,39.866l-9.125,9.126l0,-46.453l-7.413,0l-5.006,-5.006l-32.859,32.86l0,-12.912l28.188,-28.188l-5.542,-5.542l-22.646,22.646l0,-22.863c3.641,-1.538 6.194,-5.136 6.194,-9.329c0,-5.571 -4.54,-10.111 -10.111,-10.111c-5.571,0 -10.112,4.54 -10.112,10.111c0,4.193 2.553,7.791 6.195,9.329l0,22.863l-22.6466,-22.646l-5.5419,5.542l28.1885,28.188l0,12.912l-32.8598,-32.86l-5.2518,5.252l-7.0797,0l0,46.468l-9.1253,-9.125l0,-39.867l-7.834,0l0,32.033l-16.1759,-16.176c0.4932,-1.205 0.7544,-2.496 0.7544,-3.83c0,-2.699 -1.0446,-5.238 -2.9596,-7.153c-1.915,-1.915 -4.4538,-2.959 -7.1522,-2.959c-2.6984,0 -5.2372,1.059 -7.1522,2.959c-3.9461,3.946 -3.9461,10.359 0,14.305c1.915,1.915 4.4538,2.959 7.1522,2.959c1.3347,0 2.6259,-0.261 3.83,-0.754l16.1759,16.176l-32.0327,0l0,7.834l39.8668,0l9.1252,9.125l-46.4531,0l0,7.414l-5.0052,5.005l32.8597,32.859l-12.9118,0l-28.18814,-28.188l-5.54189,5.542l22.64623,22.646l-22.86388,0c-1.5378,-3.641 -5.13566,-6.194 -9.32832,-6.194c-5.5709,0 -10.1117,4.54 -10.1117,10.111c0,5.571 4.5408,10.112 10.1117,10.112c4.19266,0 7.79052,-2.553 9.32832,-6.195l22.86388,0l-22.64623,22.647l5.54189,5.542l28.18814,-28.189l12.9118,0l-32.8597,32.86l5.2518,5.252l0,7.079l46.4677,0l-9.1253,9.126l-39.8667,0l0,7.834l32.0327,0l-16.176,16.176c-1.2041,-0.494 -2.4953,-0.755 -3.83,-0.755c-2.6984,0 -5.2372,1.045 -7.1522,2.96c-3.9461,3.946 -3.9461,10.358 0,14.304c1.915,1.915 4.4538,2.96 7.1522,2.96c2.6984,0 5.2372,-1.045 7.1522,-2.96c1.915,-1.915 2.9596,-4.454 2.9596,-7.152c0,-1.335 -0.2612,-2.626 -0.7544,-3.83l16.1759,-16.176l0,32.033l7.8341,0l0,-39.867l9.1253,-9.125l0,46.467l7.4132,0l5.0052,5.006l32.8597,-32.86l0,12.912l-28.1883,28.188l5.542,5.542l22.6463,-22.646l0,22.863c-3.641,1.538 -6.195,5.136 -6.195,9.329c0,5.571 4.541,10.111 10.112,10.111c5.571,0 10.112,-4.54 10.112,-10.111c0,-4.193 -2.554,-7.791 -6.195,-9.329l0,-22.863l22.646,22.646l5.542,-5.542l-28.188,-28.188l0,-12.912l32.86,32.86l5.251,-5.252l7.08,0l0,-46.468l9.125,9.125l0,39.867l7.834,0l0,-32.033l16.176,16.176c-1.479,3.656 -0.754,8.009 2.205,10.968c1.915,1.915 4.454,2.96 7.153,2.96c2.698,0 5.237,-1.059 7.152,-2.96c3.946,-3.946 3.946,-10.358 0,-14.304c-1.915,-1.915 -4.454,-2.96 -7.152,-2.96c-1.335,0 -2.626,0.261 -3.83,0.755l-16.176,-16.176l32.032,0l0,-7.834l-39.866,0l-9.126,-9.126l46.468,0l0,-7.413l5.005,-5.005l-32.859,-32.86l12.911,0l28.188,28.188l5.542,-5.542l-22.646,-22.646l22.864,0c1.538,3.642 5.136,6.195 9.328,6.195c5.571,0 10.112,-4.541 10.112,-10.112c-0.014,-5.571 -4.555,-10.112 -10.126,-10.112zm-144.133,30.611l-5.5416,-5.542l-8.3563,8.357l-27.0857,0l19.0484,-19.049l11.8237,0l0,-7.834l-11.8237,0l-19.1499,-19.15l26.9405,0l8.3564,8.357l5.5422,-5.542l-8.3566,-8.357l0,-25.852l19.0486,19.048l0,10.591l7.834,0l0,-10.591l19.15,-19.15l0,25.708l-8.357,8.356l5.542,5.542l8.357,-8.356l27.085,0l-19.048,19.048l-11.824,0l0,7.834l11.824,0l19.15,19.15l-26.941,0l-8.356,-8.356l-5.542,5.542l8.356,8.356l0,27.086l-19.048,-19.049l0,-11.823l-7.834,0l0,11.823l-19.1501,19.15l0,-26.94l8.3561,-8.357zm76.876,-24.416l-17.25,0l15.016,-15.015c1.625,1.073 3.539,1.654 5.527,1.654c2.698,0 5.237,-1.059 7.152,-2.96c1.915,-1.915 2.96,-4.454 2.96,-7.152c0,-2.699 -1.045,-5.237 -2.96,-7.152c-1.915,-1.915 -4.454,-2.96 -7.152,-2.96c-2.698,0 -5.237,1.045 -7.152,2.96c-1.509,1.508 -2.452,3.409 -2.8,5.469l-21.152,0l12.201,-12.201l52.952,0l-37.342,37.357zm-66.43,-42.231l-14.5804,-14.58c2.0314,-3.816 1.4794,-8.661 -1.7265,-11.882c-1.915,-1.915 -4.4537,-2.96 -7.1521,-2.96c-2.6984,0 -5.2373,1.045 -7.1523,2.96c-1.915,1.915 -2.9594,4.454 -2.9594,7.152c0,2.698 1.0444,5.237 2.9594,7.152c1.5088,1.509 3.4093,2.452 5.4694,2.8l0,21.152l-12.2009,-12.201l0,-52.952l37.3428,37.342l0,16.017l0,0zm-30.6837,17.336l-21.2246,0c-0.9575,-4.584 -5.0341,-8.052 -9.8941,-8.052c-5.5709,0 -10.1118,4.541 -10.1118,10.112c0,5.571 4.5409,10.112 10.1118,10.112c2.1906,0 4.2071,-0.696 5.861,-1.886l14.9428,14.943l-17.2495,0l-37.444,-37.444l52.8075,0l12.2009,12.215zm-27.5644,33.077l17.2495,0l-15.0153,15.016c-1.6249,-1.074 -3.5399,-1.654 -5.5274,-1.654c-2.6984,0 -5.2372,1.059 -7.1522,2.959c-1.915,1.915 -2.9596,4.454 -2.9596,7.153c0,2.698 1.0446,5.237 2.9596,7.152c1.915,1.915 4.4538,2.959 7.1522,2.959c2.6984,0 5.2372,-1.044 7.1522,-2.959c1.5088,-1.509 2.4518,-3.41 2.8,-5.47l21.1519,0l-12.2008,12.201l-52.9526,0l37.3425,-37.357zm66.4301,40.999l15.001,15.001c-2.568,3.917 -2.133,9.241 1.306,12.679c1.915,1.915 4.453,2.96 7.152,2.96c2.698,0 5.237,-1.045 7.152,-2.96c1.915,-1.915 2.959,-4.454 2.959,-7.152c0,-2.699 -1.044,-5.237 -2.959,-7.152c-1.509,-1.509 -3.409,-2.452 -5.469,-2.8l0,-21.138l12.2,12.201l0,52.953l-37.342,-37.343l0,-17.249l0,0zm30.683,-16.104l21.225,0c0.957,4.585 5.034,8.052 9.894,8.052c5.571,0 10.112,-4.541 10.112,-10.112c0,-5.571 -4.541,-10.111 -10.112,-10.111c-2.19,0 -4.207,0.696 -5.861,1.885l-14.943,-14.942l17.25,0l37.444,37.444l-52.808,0l-12.201,-12.216zm6.413,-75.947l-12.201,12.201l0,-21.239c4.584,-0.957 8.052,-5.034 8.052,-9.894c0,-5.571 -4.541,-10.112 -10.112,-10.112c-5.571,0 -10.112,4.541 -10.112,10.112c0,1.871 0.522,3.612 1.407,5.107l-14.464,14.464l0,-16.017l37.444,-37.444l0,52.822l-0.014,0zm-82.3741,93.922l12.2009,-12.201l0,21.225c-4.5844,0.957 -8.0518,5.034 -8.0518,9.894c0,5.571 4.5408,10.112 10.1117,10.112c5.5709,0 10.1123,-4.541 10.1123,-10.112c0,-2.191 -0.697,-4.207 -1.8864,-5.861l14.9424,-14.943l0,17.25l-37.4436,37.444l0,-52.808l0.0145,0z"/>
   <path id="svg_20" fill="white" d="m425.526,761.349l-24.031,8.27l-8.796,-4.298l23.495,-8.085l-2.352,-6.828l-30.333,10.438l-8.527,-4.159l27.993,-9.634l-1.793,-5.205l1.114,-5.714l-29.06,-5.65l7.867,-5.304l31.488,6.122l1.381,-7.089l-24.39,-4.741l8.114,-5.479l24.946,4.851l1.381,-7.088l-17.858,-3.471l13.844,-9.333l0.23,-0.155l-4.039,-5.986l-14.074,9.488l3.415,-17.584l0.055,-0.273l-7.088,-1.381l-4.852,24.946l-8.123,5.479l4.686,-24.117l0.056,-0.273l-7.089,-1.381l-6.122,31.488l-7.866,5.304l5.595,-28.787l0.055,-0.273l-5.403,-1.053l-4.39,-3.816l-19.426,22.342l-0.66,-9.463l21.042,-24.201l-5.447,-4.736l-16.306,18.754l-0.682,-9.768l16.675,-19.178l-5.447,-4.737l-11.939,13.732l-1.185,-16.966l-7.208,0.503l1.182,16.929l-13.731,-11.939l-4.736,5.447l19.178,16.676l0.682,9.767l-18.753,-16.306l-4.736,5.456l24.201,21.043l0.66,9.462l-22.342,-19.426l-3.61,4.152l-5.504,1.898l9.634,27.993l-8.527,-4.159l-10.345,-30.061l-0.092,-0.262l-6.828,2.352l8.084,23.495l-8.796,-4.289l-8.27,-24.03l-6.828,2.353l5.918,17.202l-15.006,-7.319l-0.25,-0.122l-3.169,6.489l15.256,7.441l-17.202,5.918l2.353,6.828l24.03,-8.27l8.796,4.298l-23.495,8.084l2.353,6.828l30.332,-10.437l8.527,4.159l-27.993,9.633l1.794,5.205l-1.115,5.715l29.06,5.65l-7.867,5.304l-31.479,-6.123l-1.381,7.089l24.391,4.741l-8.114,5.479l-24.946,-4.851l-1.381,7.088l17.857,3.471l-13.843,9.333l-0.231,0.155l4.04,5.986l14.074,-9.488l-3.416,17.584l-0.055,0.273l7.089,1.381l4.851,-24.946l8.124,-5.479l-4.687,24.117l-0.055,0.273l7.089,1.381l6.121,-31.488l7.867,-5.304l-5.596,28.787l-0.055,0.273l5.404,1.053l4.389,3.816l19.426,-22.342l0.661,9.463l-21.042,24.201l5.447,4.736l16.306,-18.754l0.682,9.768l-16.676,19.178l5.447,4.737l11.94,-13.732l1.182,16.929l7.207,-0.503l-1.181,-16.929l13.731,11.939l4.736,-5.456l-19.179,-16.676l-0.682,-9.767l18.754,16.306l4.735,-5.457l-24.2,-21.042l-0.659,-9.426l22.343,19.427l3.61,-4.152l5.504,-1.898l-9.634,-27.993l8.527,4.159l10.345,30.06l0.092,0.263l6.828,-2.352l-8.084,-23.495l8.796,4.288l8.27,24.031l6.828,-2.353l-5.918,-17.202l15.006,7.319l0.25,0.122l3.169,-6.489l-15.256,-7.441l17.202,-5.918l-2.361,-6.818zm-85.802,-15.433l1.974,-4.047l4.491,-0.314l2.517,3.734l-1.974,4.047l-4.491,0.314l-2.517,-3.734zm11.705,-0.724l13.338,-9.001l30.378,5.912l-29.344,10.099l-14.372,-7.01zm-3.959,-6.038l-1.121,-16.051l20.312,-23.361l-5.924,30.463l-13.267,8.949zm-7.215,0.401l-14.458,-7.05l-10.075,-29.262l23.42,20.363l1.113,15.949l0,0zm-3.254,6.458l-13.338,9.001l-30.378,-5.912l29.344,-10.099l14.372,7.01zm3.959,6.038l1.121,16.052l-20.312,23.36l5.924,-30.462l13.267,-8.95zm7.215,-0.401l14.458,7.051l10.075,29.262l-23.419,-20.363l-1.114,-15.95l0,0z"/>
  </g>
 </g>
</svg>