<svg width="14" height="14" viewBox="0 0 14 14" fill="none" xmlns="http://www.w3.org/2000/svg">
<path fill-rule="evenodd" clip-rule="evenodd" d="M10.1364 0H3.86341C1.73313 0 0 1.73321 0 3.86349V10.1365C0 12.2669 1.73313 14 3.86341 14H10.1364C12.2669 14 14 12.2668 14 10.1365V3.86349C14.0001 1.73321 12.2669 0 10.1364 0ZM6.9999 3.39276C5.01073 3.39276 3.39246 5.01103 3.39246 7.00021C3.39246 8.9893 5.01073 10.6075 6.9999 10.6075C8.98908 10.6075 10.6073 8.9893 10.6073 7.00021C10.6073 5.01103 8.98908 3.39276 6.9999 3.39276ZM6.9999 9.36526C5.69573 9.36526 4.6346 8.3043 4.6346 7.00012C4.6346 5.69587 5.69565 4.63483 6.9999 4.63483C8.30416 4.63483 9.3652 5.69587 9.3652 7.00012C9.3652 8.3043 8.30407 9.36526 6.9999 9.36526ZM10.1149 2.60667C10.2839 2.43691 10.519 2.34003 10.7583 2.34003C10.9985 2.34003 11.2336 2.43691 11.4026 2.60667C11.5723 2.77561 11.6692 3.01079 11.6692 3.25094C11.6692 3.49026 11.5723 3.72544 11.4026 3.8952C11.2328 4.06413 10.9985 4.16184 10.7583 4.16184C10.519 4.16184 10.2838 4.06413 10.1149 3.8952C9.94513 3.72544 9.84741 3.49034 9.84741 3.25094C9.84741 3.01079 9.94505 2.77561 10.1149 2.60667Z" fill="#222222"/>
</svg>
