<?xml version="1.0" encoding="UTF-8" standalone="no"?>
<svg
   xmlns:dc="http://purl.org/dc/elements/1.1/"
   xmlns:cc="http://creativecommons.org/ns#"
   xmlns:rdf="http://www.w3.org/1999/02/22-rdf-syntax-ns#"
   xmlns:svg="http://www.w3.org/2000/svg"
   xmlns="http://www.w3.org/2000/svg"
   version="1.1"
   id="Layer_1"
   x="0px"
   y="0px"
   viewBox="0 0 16.000001 16.000001"
   xml:space="preserve"
   width="16"
   height="16"><metadata
   id="metadata949"><rdf:RDF><cc:Work
       rdf:about=""><dc:format>image/svg+xml</dc:format><dc:type
         rdf:resource="http://purl.org/dc/dcmitype/StillImage" /><dc:title></dc:title></cc:Work></rdf:RDF></metadata><defs
   id="defs947" />
<path
   style="fill:#a3e1ff;stroke-width:0.0311175"
   d="m 14.837618,1.0938087 c 1.458412,1.4580693 1.458412,3.8223403 0,5.2807519 l -3.07686,3.0772024 c -0.414235,0.4142349 -0.901316,0.710473 -1.420231,0.889398 -0.7892616,0.27206 -1.6513389,0.27206 -2.4406015,0 C 7.3809802,10.162236 6.8939302,9.8659979 6.479695,9.451763 6.0658021,9.0375281 5.7692219,8.5504469 5.5902967,8.0315324 l 0.065471,-0.065471 c -0.065471,0.065471 1.154052,-1.1777635 1.154052,-1.1777635 l 1.155608,1.1777635 c 0.6366006,0.6369428 1.6727173,0.6369428 2.3096593,0 l 0.06547,-0.065471 3.011732,-3.0117314 c 0.6366,-0.6366003 0.6366,-1.6727172 0,-2.3096599 -0.636943,-0.6366003 -1.67306,-0.6366003 -2.309661,0 L 8.0308987,5.5909304 6.8105666,6.0871911 5.5902656,5.5908992 C 5.7691908,5.0723273 6.0654287,4.584904 6.4796639,4.1706688 L 9.5568665,1.0938087 c 1.4584115,-1.45841159 3.8226825,-1.45841159 5.2807515,0 z"
   id="path910" />
<path
   style="fill:#4aaee2;stroke-width:0.0311175"
   d="m 8.0308676,5.5908992 c 0.5185716,0.1789253 1.0056527,0.4755055 1.4198884,0.8897407 0.4142349,0.4138929 0.710816,0.9013163 0.88974,1.4198882 l -0.06547,0.065471 c -0.6369427,0.6369428 -1.6730595,0.6369428 -2.3096602,0 -0.6369426,-0.6366003 -1.6730596,-0.6366003 -2.3096599,0 l -0.065471,0.065471 -3.0117314,3.0117319 c -0.6369426,0.636942 -0.6369426,1.673059 0,2.30966 0.6366004,0.636942 1.6727173,0.636942 2.30966,0 l 3.011729,-3.011732 c 0.7892629,0.27206 1.6513402,0.27206 2.4406025,0 -0.178925,0.518946 -0.4755057,1.005996 -0.8897406,1.420231 L 6.373894,14.838563 c -1.4584116,1.45807 -3.8226827,1.45807 -5.2810943,0 -1.45806922,-1.458412 -1.45806922,-3.822683 0,-5.281094 L 4.170004,6.4806088 C 4.5842392,6.0663735 5.0713202,5.7697933 5.5902345,5.5908682 6.379528,5.3188708 7.2416052,5.3188708 8.0308676,5.5908992 Z"
   id="path912" />
<g
   id="g914">
</g>
<g
   id="g916">
</g>
<g
   id="g918">
</g>
<g
   id="g920">
</g>
<g
   id="g922">
</g>
<g
   id="g924">
</g>
<g
   id="g926">
</g>
<g
   id="g928">
</g>
<g
   id="g930">
</g>
<g
   id="g932">
</g>
<g
   id="g934">
</g>
<g
   id="g936">
</g>
<g
   id="g938">
</g>
<g
   id="g940">
</g>
<g
   id="g942">
</g>
</svg>
