<svg width="68" height="80" viewBox="0 0 68 80" fill="none" xmlns="http://www.w3.org/2000/svg">
<path d="M66.5821 66.4216C52.0361 51.8526 52.0361 28.1472 66.5821 13.5777C66.7905 13.3691 67.0003 13.1642 67.2124 12.962L54.2716 8.39233e-05C54.0607 0.204193 53.8497 0.407181 53.6414 0.615082C31.9606 22.332 31.9606 57.6674 53.6417 79.3839C53.8504 79.5922 54.0618 79.7948 54.2716 79.9993L67.2124 67.037C67.0003 66.8352 66.7905 66.6307 66.5821 66.4216Z" fill="white"/>
<path d="M13.5714 0.616066C13.3623 0.407402 13.1517 0.204422 12.9408 0.000305176L0 12.9622C0.2121 13.1644 0.421932 13.3697 0.630252 13.5779C15.176 28.1474 15.176 51.8532 0.630252 66.4218C0.421932 66.6309 0.2121 66.8354 0 67.0372L12.9408 80.0002C13.1514 79.795 13.3635 79.5924 13.5706 79.3841C35.2521 57.668 35.2521 22.3322 13.5714 0.616066Z" fill="#05A1E6"/>
</svg>
