<svg width="18" height="24" viewBox="0 0 18 24" fill="none" xmlns="http://www.w3.org/2000/svg">
<path d="M0.494324 0.000599509C0.358704 0.0133809 0.232774 0.0764459 0.141299 0.17738C0.0498228 0.278313 -0.000578939 0.409805 5.01806e-06 0.546021V23.4545C1.58734e-05 23.5992 0.0574862 23.7379 0.159776 23.8402C0.262066 23.9425 0.400798 24 0.54546 24H17.4546C17.5992 24 17.738 23.9425 17.8402 23.8402C17.9425 23.7379 18 23.5992 18 23.4545V6.54589C18.0006 6.47304 17.9865 6.40082 17.9587 6.33349C17.9309 6.26615 17.8899 6.20506 17.8381 6.15384L17.6335 5.95787C17.6133 5.93021 17.5904 5.90452 17.5653 5.88115L12.1108 0.426736C12.0972 0.414669 12.083 0.403291 12.0682 0.392645L11.8381 0.154009C11.7353 0.054581 11.5976 -0.000509038 11.4546 0.000599509H0.54546C0.528424 -0.000199836 0.51136 -0.000199836 0.494324 0.000599509ZM1.09091 1.09148H11.1818V6.27316C11.1818 6.41782 11.2393 6.55656 11.3416 6.65885C11.4439 6.76114 11.5826 6.8186 11.7273 6.81861H16.9091V22.9091H1.09091V1.09148ZM12.2727 2.13123L15.8693 5.72774H12.2727V2.13123ZM8.42047 8.72766C8.03873 8.72766 7.72747 8.95748 7.55115 9.22197C7.37483 9.48644 7.28696 9.80312 7.28696 10.1424C7.28696 10.8368 7.55491 11.6369 7.94319 12.452C7.62628 13.4122 7.19494 14.4394 6.73296 15.3326C6.10566 15.5898 5.51578 15.8564 5.07104 16.1422C4.82022 16.3034 4.59841 16.4701 4.42332 16.6621C4.24817 16.8541 4.09092 17.0937 4.09092 17.4206C4.09092 18.0367 4.59977 18.5456 5.21592 18.5456C5.81676 18.5456 6.16703 18.1526 6.53695 17.7019C6.86076 17.3072 7.18026 16.7676 7.4915 16.2019C8.34527 15.8738 9.29006 15.5822 10.1761 15.3752C10.7809 15.8543 11.4471 16.219 12.196 16.219C12.591 16.219 12.9601 16.1437 13.2699 15.9888C13.5797 15.8339 13.9091 15.5494 13.9091 15.094C13.9091 14.6386 13.5797 14.3455 13.2699 14.1906C12.9601 14.0357 12.591 13.9605 12.196 13.9605C12.1932 13.9605 12.1904 13.9605 12.1876 13.9605C11.6998 13.9687 11.0932 14.0844 10.4745 14.2077C9.95641 13.7028 9.48527 13.0417 9.11941 12.3583C9.37007 11.5337 9.54555 10.7656 9.54555 10.1424C9.54555 9.80312 9.45767 9.48644 9.28133 9.22197C9.10504 8.95748 8.80228 8.72766 8.42055 8.72766H8.42047ZM8.42047 9.98899C8.43519 10.0423 8.45456 10.0733 8.45456 10.1424C8.45456 10.2018 8.42625 10.3099 8.42047 10.381C8.41256 10.3101 8.37787 10.2014 8.37787 10.1424C8.37787 10.0728 8.40566 10.0426 8.42047 9.98899ZM8.65059 13.6877C8.84595 13.9815 9.06956 14.2401 9.29832 14.5059C8.9141 14.6087 8.54693 14.7308 8.16478 14.8553C8.34064 14.465 8.49817 14.0869 8.65059 13.6877ZM12.196 15.0514C12.2031 15.0514 12.2061 15.0513 12.213 15.0514C12.2894 15.0514 12.3237 15.084 12.3919 15.094C12.3179 15.1046 12.2794 15.1281 12.1959 15.1281C12.1374 15.1281 12.0694 15.0851 12.0084 15.0769C12.0595 15.0742 12.1489 15.0524 12.1959 15.0513L12.196 15.0514ZM5.49715 17.1905C5.38523 17.2764 5.2145 17.4131 5.20741 17.4462C5.20441 17.4462 5.20114 17.4462 5.19895 17.4462C5.20659 17.4331 5.20795 17.4225 5.23304 17.395C5.2796 17.344 5.39976 17.2642 5.49724 17.1905H5.49715Z" fill="#1D4E9E"/>
</svg>
