<svg width="12" height="12" viewBox="0 0 12 12" fill="none" xmlns="http://www.w3.org/2000/svg">
<path d="M11.9905 9.46669L11.8919 10.107C11.7934 10.5503 11.5964 10.9444 11.3009 11.2892C10.8083 11.831 10.0695 12.0773 9.37989 11.9787C7.90221 11.7325 5.29164 11.0921 3.12438 9.02339C0.907863 6.90538 0.267535 4.1963 0.0212555 2.66937C-0.0772564 1.97979 0.169023 1.24095 0.710839 0.797642L0.760095 0.748386C1.05563 0.45285 1.44968 0.255826 1.84373 0.20657L2.48405 0.00954653C2.73033 -0.0397094 2.97661 0.108058 3.07512 0.305082L4.20801 3.3097C4.30652 3.55598 4.20801 3.80226 3.96173 3.95002L2.4348 4.78737C2.4348 4.78737 3.02587 6.26505 4.25727 7.59496C5.48867 8.92488 7.26188 9.5652 7.26188 9.5652L8.09923 8.03827C8.19775 7.84124 8.49328 7.74273 8.6903 7.79199L11.6949 8.87562C11.8919 9.02339 12.0397 9.22041 11.9905 9.46669Z" fill="#222222"/>
</svg>
