<svg width="18" height="14" viewBox="0 0 18 14" fill="none" xmlns="http://www.w3.org/2000/svg">
<path d="M13.8655 -9.6918e-08H3.63453C1.62723 -9.6918e-08 0 1.83965 0 4.10898V9.89102C0 12.1603 1.62723 14 3.63453 14H13.8655C15.8728 14 17.5 12.1603 17.5 9.89102V4.10898C17.5 1.83965 15.8728 -9.6918e-08 13.8655 -9.6918e-08ZM11.4075 7.28132L6.62212 9.86158C6.49461 9.93033 6.34732 9.82523 6.34732 9.66553V4.34374C6.34732 4.18177 6.49848 4.0768 6.62626 4.15001L11.4116 6.89155C11.5539 6.97305 11.5514 7.20372 11.4075 7.28132Z" fill="#FFFFFF"/>
</svg>
