<svg width="12" height="12" viewBox="0 0 12 12" fill="none" xmlns="http://www.w3.org/2000/svg">
<path d="M6 0C2.6914 0 0 2.69166 0 6C0 9.30834 2.6914 12 6 12C9.3086 12 12 9.30834 12 6C12 2.69166 9.3086 0 6 0ZM8.42672 8.07323L8.07328 8.42672C7.97562 8.52434 7.81737 8.52434 7.7197 8.42672L5.6464 6.35341C5.55267 6.25966 5.50001 6.13254 5.50001 6V1.99999C5.50001 1.8619 5.61195 1.74998 5.75002 1.74998H6.25001C6.38808 1.74998 6.50002 1.8619 6.50002 1.99999V5.79295L8.42674 7.71968C8.52438 7.81732 8.52438 7.97562 8.42672 8.07323Z" fill="#222222"/>
</svg>
