<svg width="15" height="12" viewBox="0 0 15 12" fill="none" xmlns="http://www.w3.org/2000/svg">
<g >
<path d="M12.8364 0H2.16633C1.09019 0 0.195324 0.803036 0.0292969 1.85098L6.08236 5.26348C6.97096 5.76442 8.03185 5.76432 8.92036 5.26348L14.9734 1.85098C14.8074 0.803036 13.9125 0 12.8364 0Z" fill="#222222"/>
<path d="M9.6186 7.54798C8.95536 7.92191 8.22758 8.10895 7.5 8.10895C6.77227 8.10895 6.04478 7.92201 5.38144 7.54798L0 4.51416V9.79739C0 11.012 0.971235 12.0001 2.16499 12.0001H12.835C14.0288 12.0002 15 11.012 15 9.79743V4.51416L9.6186 7.54798Z" fill="#222222"/>
</g>
</svg>
