<svg width="167" height="60" viewBox="0 0 167 60" fill="none" xmlns="http://www.w3.org/2000/svg">
<path d="M49.1171 49.002C38.6559 38.5242 38.6559 21.4758 49.1171 10.9978C49.267 10.8477 49.4179 10.7004 49.5704 10.5549L40.2637 1.23302C40.112 1.37981 39.9602 1.52579 39.8104 1.67531C24.2181 17.2936 24.2181 42.7061 39.8107 58.3242C39.9608 58.4739 40.1128 58.6197 40.2637 58.7667L49.5704 49.4445C49.4179 49.2994 49.267 49.1523 49.1171 49.002Z" fill="#1D4E9E"/>
<path d="M10.9927 1.67567C10.8423 1.52561 10.6909 1.37963 10.5391 1.23283L1.23242 10.5548C1.38496 10.7002 1.53587 10.8478 1.68569 10.9976C12.1466 21.4756 12.1466 38.5243 1.68569 49.0018C1.53587 49.1521 1.38496 49.2992 1.23242 49.4444L10.5391 58.7671C10.6906 58.6195 10.8431 58.4738 10.9921 58.324C26.585 42.7062 26.585 17.2934 10.9927 1.67567Z" fill="#05A1E6"/>
<path d="M91.6341 29.4764L101.72 14.4976H110.37L99.9804 29.4764L111.501 44.9776H102.154L91.6341 29.4764ZM83.9395 14.4976H91.4168V44.9779H83.9395V14.4976Z" fill="#231F20"/>
<path d="M127.377 25.7914H124.106L120.074 31.7566H125.421C127.812 31.7566 129.29 33.2809 129.29 35.4145C129.29 37.5045 127.812 39.0718 125.421 39.0718H120.074V31.7566V20.4792H133.941V14.5137H112.597V44.9938H127.377C133.246 44.9938 136.854 40.9442 136.854 35.4578C136.854 29.8842 132.768 25.7914 127.377 25.7914Z" fill="#231F20"/>
<path d="M153.647 33.0032H146.904L153.647 22.9451V33.0032ZM165.616 33.0032H161.168V14.0622H154.03L141.306 33.016V38.1849H153.647V44.9778H161.168V38.1849H165.616V33.0032Z" fill="#231F20"/>
<path d="M77.8081 37.2329C75.7938 38.1611 73.4481 38.6636 71.3028 38.6636C66.0425 38.6636 62.7384 34.5269 62.7384 29.7377C62.7384 24.9473 66.0425 20.8545 71.3028 20.8545C73.4527 20.8545 75.8036 21.3589 77.8198 22.2909L81.634 16.6484C78.7016 14.8637 75.0899 13.8445 71.3028 13.8445C61.1735 13.8445 55.1748 20.8981 55.1748 29.7377C55.1748 38.6203 61.1735 45.6305 71.3028 45.6305C75.085 45.6305 78.6918 44.6492 81.6223 42.876L77.8081 37.2329Z" fill="#231F20"/>
</svg>
