<svg width="20" height="12" viewBox="0 0 20 12" fill="none" xmlns="http://www.w3.org/2000/svg">
<path d="M17.2128 7.63019C17.8762 8.31695 18.5764 8.96303 19.1715 9.71904C19.4343 10.055 19.6831 10.4017 19.8735 10.7915C20.1433 11.3458 19.899 11.9557 19.4303 11.9887L16.5166 11.9873C15.7651 12.0534 15.1656 11.7327 14.6616 11.1879C14.2582 10.7523 13.8846 10.2886 13.4967 9.83827C13.3377 9.65422 13.1712 9.48102 12.9724 9.3441C12.5746 9.07038 12.2294 9.15417 12.0021 9.594C11.7706 10.0414 11.718 10.5367 11.6953 11.0353C11.6641 11.7627 11.4567 11.954 10.7675 11.9873C9.29469 12.0609 7.89689 11.8247 6.59834 11.0369C5.45349 10.3424 4.56576 9.36199 3.79303 8.25209C2.28862 6.09089 1.13647 3.71603 0.101008 1.27465C-0.132077 0.724611 0.038391 0.429357 0.610811 0.418879C1.56132 0.399289 2.5117 0.400698 3.46334 0.417471C3.84967 0.423476 4.10541 0.658387 4.25459 1.04533C4.76885 2.386 5.3981 3.66153 6.18795 4.84382C6.3983 5.15858 6.61279 5.47338 6.91818 5.69492C7.25607 5.94022 7.51333 5.85892 7.67228 5.45984C7.77314 5.20679 7.81732 4.93423 7.84005 4.66325C7.91536 3.73086 7.92528 2.80004 7.79322 1.87092C7.71212 1.29105 7.40408 0.915661 6.85833 0.805951C6.57986 0.749998 6.6213 0.640122 6.75615 0.471601C6.99033 0.180945 7.2106 -4.55007e-08 7.6497 -4.55007e-08H10.9426C11.461 0.108468 11.5761 0.355389 11.6471 0.908414L11.6499 4.78646C11.6442 5.00054 11.7507 5.6359 12.1145 5.77758C12.4055 5.87847 12.5974 5.63155 12.7721 5.43586C13.5605 4.54869 14.1232 3.50021 14.6259 2.41454C14.849 1.93714 15.0408 1.44139 15.2267 0.946019C15.3644 0.578454 15.5806 0.397591 15.9711 0.405585L19.1403 0.408566C19.2343 0.408566 19.3294 0.410016 19.4204 0.426541C19.9544 0.52304 20.1008 0.766606 19.9358 1.31951C19.6759 2.18696 19.1703 2.90987 18.6758 3.6361C18.1473 4.41144 17.5821 5.16028 17.058 5.94022C16.5764 6.65257 16.6146 7.01156 17.2128 7.63019Z" fill="#FFFFFF"/>
</svg>
